#define font_fr_width 25
#define font_fr_height 8
static unsigned char font_fr_bits[] = {
   0x48, 0x08, 0x02, 0x00, 0x84, 0x10, 0xe5, 0x00, 0xce, 0x39, 0x10, 0x00,
   0x31, 0x42, 0x13, 0x00, 0xff, 0x7b, 0x12, 0x01, 0x21, 0x44, 0xe2, 0x00,
   0xce, 0x79, 0x47, 0x00, 0x00, 0x00, 0x20, 0x00 };
