#define font_dblsize_it_width 10
#define font_dblsize_it_height 16
static unsigned char font_dblsize_it_bits[] = {
   0x00, 0x00, 0x18, 0x00, 0x30, 0x00, 0x60, 0x00, 0x00, 0x00, 0x03, 0x03,
   0x03, 0x03, 0x03, 0x03, 0x03, 0x03, 0x03, 0x03, 0x03, 0x03, 0x03, 0x03,
   0x87, 0x03, 0xfe, 0x03, 0x7c, 0x03, 0x00, 0x00 };
