#define font_se_08x10_width 48
#define font_se_08x10_height 12
static unsigned char font_se_08x10_bits[] = {
   0x00, 0x00, 0x00, 0x00, 0x00, 0x00, 0x18, 0x6c, 0x36, 0x18, 0x66, 0x66,
   0x24, 0x6c, 0x36, 0x24, 0x66, 0x66, 0x18, 0x00, 0x00, 0x3c, 0x18, 0x18,
   0x3c, 0x3c, 0x1c, 0x7e, 0x66, 0x66, 0x66, 0x66, 0x36, 0xc3, 0xc3, 0xc3,
   0x60, 0x60, 0x63, 0xc3, 0xc3, 0xc3, 0x7e, 0x7e, 0x63, 0xff, 0xff, 0xc3,
   0x63, 0x63, 0x63, 0xc3, 0xc3, 0xc3, 0x73, 0x73, 0x36, 0xc3, 0xc3, 0x66,
   0x6e, 0x6e, 0x1c, 0xc3, 0xc3, 0x3c, 0x00, 0x00, 0x00, 0x00, 0x00, 0x00 };
