#define font_dblsize_fr_width 30
#define font_dblsize_fr_height 16
static unsigned char font_dblsize_fr_bits[] = {
   0x0e, 0x00, 0xee, 0x00, 0x1c, 0x00, 0xc7, 0x01, 0x38, 0x80, 0x83, 0x03,
   0x70, 0xc0, 0x01, 0x07, 0x00, 0x00, 0x00, 0x00, 0xfc, 0xe0, 0x81, 0x07,
   0xfe, 0xf9, 0xe7, 0x1f, 0x82, 0x3b, 0xef, 0x3c, 0x80, 0x1f, 0x7e, 0x38,
   0xfc, 0xff, 0xff, 0x3f, 0xfe, 0xff, 0xff, 0x3f, 0x8f, 0x1f, 0x70, 0x00,
   0x87, 0x1f, 0x70, 0x00, 0xc7, 0x3b, 0xe8, 0x20, 0xfe, 0xfb, 0xef, 0x3f,
   0xbc, 0xe3, 0x87, 0x1f };
