#define font_es_width 10
#define font_es_height 8
static unsigned char font_es_bits[] = {
   0x94, 0x02, 0x4a, 0x01, 0x11, 0x00, 0xb3, 0x01, 0x75, 0x02, 0x39, 0x02,
   0x31, 0x02, 0x00, 0x00 };
