#define font_it_width 10
#define font_it_height 8
static unsigned char font_it_bits[] = {
   0x63, 0x00, 0x84, 0x00, 0x2e, 0x02, 0x30, 0x02, 0x3e, 0x02, 0x31, 0x03,
   0xde, 0x02, 0x00, 0x00 };
