#define font_it_10x14_width 30
#define font_it_10x14_height 16
static unsigned char font_it_10x14_bits[] = {
   0x00, 0x00, 0x00, 0x00, 0x18, 0x60, 0x80, 0x01, 0x30, 0xc0, 0x00, 0x03,
   0x60, 0x80, 0x01, 0x06, 0x00, 0x00, 0x00, 0x00, 0xfc, 0xf0, 0x33, 0x30,
   0xfc, 0xf9, 0x37, 0x30, 0x80, 0x1f, 0x3e, 0x30, 0x00, 0x0f, 0x3c, 0x30,
   0xfc, 0xff, 0x3f, 0x30, 0xfe, 0xff, 0x3f, 0x30, 0x07, 0x0f, 0x30, 0x30,
   0x07, 0x1f, 0x70, 0x38, 0xfe, 0xfb, 0xe3, 0x3f, 0xfc, 0xf3, 0xc3, 0x37,
   0x00, 0x00, 0x00, 0x00 };
