#define font_it_04x06_width 10
#define font_it_04x06_height 7
static unsigned char font_it_04x06_bits[] = {
   0x42, 0x00, 0x84, 0x00, 0x2e, 0x01, 0x29, 0x01, 0x2d, 0x01, 0xca, 0x01,
   0x00, 0x00 };
