#define font_de_width 35
#define font_de_height 8
static unsigned char font_de_bits[] = {
   0x4a, 0x29, 0xa5, 0x94, 0x01, 0x0e, 0x38, 0x10, 0x41, 0x02, 0xd1, 0x45,
   0x17, 0x63, 0x02, 0x11, 0xc6, 0x18, 0x63, 0x01, 0xdf, 0xc7, 0x18, 0x63,
   0x02, 0x31, 0xc6, 0x18, 0x73, 0x04, 0xd1, 0x3b, 0xe7, 0x6c, 0x03, 0x00,
   0x00, 0x00, 0x00, 0x00 };
