#define font_it_08x10_width 16
#define font_it_08x10_height 12
static unsigned char font_it_08x10_bits[] = {
   0x00, 0x00, 0x0c, 0x0c, 0x18, 0x18, 0x00, 0x00, 0x3c, 0x63, 0x66, 0x63,
   0x60, 0x63, 0x7e, 0x63, 0x63, 0x63, 0x73, 0x76, 0x6e, 0x6c, 0x00, 0x00 };
