#define font_it_05x07_width 10
#define font_it_05x07_height 8
static unsigned char font_it_05x07_bits[] = {
   0x42, 0x00, 0x84, 0x00, 0x2e, 0x02, 0x30, 0x02, 0x3e, 0x02, 0x31, 0x03,
   0xde, 0x02, 0x00, 0x00 };
