#define font_fr_width 15
#define font_fr_height 8
static unsigned char font_fr_bits[] = {
   0x48, 0x08, 0x84, 0x10, 0xce, 0x39, 0x31, 0x42, 0xff, 0x7b, 0x21, 0x44,
   0xce, 0x79, 0x00, 0x00 };
