#define font_dblsize_fr_width 30
#define font_dblsize_fr_height 16
static unsigned char font_dblsize_fr_bits[] = {
   0x00, 0x00, 0x00, 0x00, 0x60, 0x60, 0x80, 0x01, 0x30, 0xc0, 0x00, 0x03,
   0x18, 0x80, 0x01, 0x06, 0x00, 0x00, 0x00, 0x00, 0xfc, 0xf0, 0xc3, 0x0f,
   0xfe, 0xf9, 0xc7, 0x1f, 0x87, 0x1f, 0x0e, 0x38, 0x03, 0x0f, 0x0c, 0x30,
   0xff, 0xff, 0xcf, 0x3f, 0xff, 0xff, 0xef, 0x3f, 0x03, 0x0c, 0x70, 0x30,
   0x07, 0x1c, 0x70, 0x30, 0xfe, 0xf8, 0xe3, 0x3f, 0xfc, 0xf0, 0xc3, 0x3f,
   0x00, 0x00, 0x00, 0x00 };
