#define font_it_width 15
#define font_it_height 8
static unsigned char font_it_bits[] = {
   0x63, 0x0c, 0x84, 0x10, 0xce, 0x45, 0x30, 0x46, 0xfe, 0x47, 0x31, 0x64,
   0xde, 0x59, 0x00, 0x00 };
