#define font_fr_width 15
#define font_fr_height 8
static unsigned char font_fr_bits[] = {
   0x84, 0x0d, 0xc0, 0x18, 0x0e, 0x00, 0xd0, 0x39, 0x7e, 0x6f, 0xf1, 0x7f,
   0x79, 0x0c, 0xd6, 0x7b };
