<?xml version="1.0" encoding="UTF-8" standalone="no"?>
<!-- Created with Inkscape (http://www.inkscape.org/) -->

<svg xmlns:dc="http://purl.org/dc/elements/1.1/" xmlns:cc="http://creativecommons.org/ns#" xmlns:rdf="http://www.w3.org/1999/02/22-rdf-syntax-ns#" xmlns:svg="http://www.w3.org/2000/svg" xmlns="http://www.w3.org/2000/svg" version="1.1" width="64" height="64" id="svg3007">
  <defs id="defs3009" />
  <metadata id="metadata3012">
    <rdf:RDF>
      <cc:Work rdf:about="">
        <dc:format>image/svg+xml</dc:format>
        <dc:type rdf:resource="http://purl.org/dc/dcmitype/StillImage" />
        <dc:title></dc:title>
      </cc:Work>
    </rdf:RDF>
  </metadata>
  <g id="layer1">
    <g transform="matrix(0.64592419,0,0,0.64592419,3.7118734,3.509355)" id="g4">
      <g id="g6">
        <path d="M 49.634152,27.060548 V 2.7303987 c 0,-1.6220105 -1.31026,-2.94910955 -2.911691,-2.94910955 -1.60143,0 -2.911692,1.32709905 -2.911692,2.94910955 V 27.060548 c 0,1.62201 1.310262,2.94911 2.911692,2.94911 1.601431,0 2.911691,-1.3271 2.911691,-2.94911 z" id="path8" />
        <path d="M 2.3191619,50.211055 H 26.340619 c 1.60143,0 2.911691,-1.3271 2.911691,-2.94911 0,-1.62201 -1.310261,-2.94911 -2.911691,-2.94911 H 2.3191619 c -1.60142995,0 -2.91169115,1.3271 -2.91169115,2.94911 0,1.62201 1.3102612,2.94911 2.91169115,2.94911 z" id="path10" />
        <path d="m 18.479051,18.803043 c -1.164676,1.179643 -1.164676,2.94911 0,4.128753 l 7.715983,7.815139 c 0.582339,0.589821 1.310262,0.884733 2.038184,0.884733 0.727924,0 1.455846,-0.294912 2.038185,-0.884733 1.164677,-1.179644 1.164677,-2.949109 0,-4.128753 L 22.55542,18.803043 c -1.019093,-1.032188 -2.911692,-1.032188 -4.076369,0 z" id="path12" />
        <path d="m 70.16158,18.950499 -7.715985,7.815138 c -1.164674,1.179644 -1.164674,2.94911 0,4.128754 0.582339,0.589821 1.310263,0.884732 2.038185,0.884732 0.727924,0 1.455847,-0.294911 2.038185,-0.884732 l 7.715982,-7.81514 c 1.164677,-1.179644 1.164677,-2.949109 0,-4.128752 -1.019092,-1.03219 -2.911691,-1.03219 -4.076367,0 z" id="path14" />
        <path d="m 26.04945,63.776956 -7.715984,7.81514 c -1.164675,1.179642 -1.164675,2.949108 0,4.128752 0.582339,0.589822 1.310262,0.884733 2.038185,0.884733 0.727924,0 1.455846,-0.294911 2.038184,-0.884733 l 7.715982,-7.815138 c 1.164677,-1.179644 1.164677,-2.94911 0,-4.128754 -1.164675,-1.179644 -2.91169,-1.179644 -4.076367,0 z" id="path16" />
        <polygon points="85.3,77 64.5,56.2 81.3,50.5 39.5,38.7 51,80.8 56.7,64.1 77.5,84.8 " transform="matrix(0.87815057,0,0,0.88943545,9.8347839,11.453988)" id="polygon18" />
      </g>
    </g>
  </g>
</svg>
