<?xml version="1.0" encoding="UTF-8" standalone="no"?>
<svg
   xmlns:dc="http://purl.org/dc/elements/1.1/"
   xmlns:cc="http://creativecommons.org/ns#"
   xmlns:rdf="http://www.w3.org/1999/02/22-rdf-syntax-ns#"
   xmlns:svg="http://www.w3.org/2000/svg"
   xmlns="http://www.w3.org/2000/svg"
   version="1.1"
   id="svg5332"
   viewBox="0 0 64.000001 64.000001"
   height="64"
   width="64">
  <defs
     id="defs5334" />
  <metadata
     id="metadata5337">
    <rdf:RDF>
      <cc:Work
         rdf:about="">
        <dc:format>image/svg+xml</dc:format>
        <dc:type
           rdf:resource="http://purl.org/dc/dcmitype/StillImage" />
        <dc:title></dc:title>
      </cc:Work>
    </rdf:RDF>
  </metadata>
  <g
     transform="translate(0,-988.36216)"
     id="layer1">
    <g
       id="g6539"
       transform="translate(0,-2.2617187e-5)">
      <circle
         cy="1020.3622"
         cx="32"
         style="fill:none;stroke:#000000;stroke-width:4.359375;stroke-miterlimit:4;stroke-dasharray:none;stroke-opacity:1"
         id="path7511-3-8-6-2-5-2-6-2"
         r="28.820312" />
      <path
         style="fill:none;fill-opacity:1;stroke:#000000;stroke-width:2.21017289;stroke-miterlimit:4;stroke-dasharray:none;stroke-opacity:1"
         d="m 18.817586,1033.1534 c -2.003825,-0.7073 -3.457036,-2.1866 -4.13535,-4.2095 -0.277505,-0.8277 -0.289265,-1.1387 -0.289265,-7.6504 0,-6.3546 0.01745,-6.8438 0.272479,-7.6693 0.615999,-1.9932 1.929935,-3.3663 3.958827,-4.1373 0.683013,-0.2595 1.201275,-0.3291 2.888021,-0.3877 1.902622,-0.066 2.068978,-0.093 2.234764,-0.3643 0.09853,-0.1611 0.571783,-0.9613 1.051717,-1.7783 0.658724,-1.1214 0.983189,-1.5378 1.323858,-1.6995 0.670602,-0.3182 11.165398,-0.3186 11.775534,0 0.499476,0.2604 0.629457,0.4367 1.677451,2.2751 l 0.835283,1.4651 2.078074,0.088 c 2.401585,0.1024 3.161571,0.3205 4.473867,1.2866 0.998498,0.735 1.566768,1.4411 2.148637,2.6696 l 0.449898,0.9499 0.0385,6.9923 c 0.03339,6.0829 0.0093,7.0933 -0.18434,7.769 -0.589336,2.0549 -2.23303,3.7437 -4.323807,4.4422 -0.84773,0.2834 -1.07511,0.2883 -13.110118,0.2854 l -12.247417,0 -0.916547,-0.3235 z"
         id="path6537" />
      <path
         style="fill:none;fill-opacity:1;stroke:#000000;stroke-width:1.1632489;stroke-opacity:1"
         d="m 34.313422,1030.5706 c 3.191745,-0.8042 5.775519,-3.2111 6.79891,-6.3335 0.362189,-1.1051 0.402193,-1.4096 0.398343,-3.032 -0.0035,-1.5896 -0.04804,-1.9284 -0.37338,-2.8573 -0.546668,-1.5609 -1.272035,-2.7034 -2.473253,-3.8955 -0.868074,-0.8613 -1.320892,-1.1833 -2.371213,-1.686 -1.724935,-0.8255 -2.500938,-0.9977 -4.419694,-0.9806 -1.3037,0.012 -1.789903,0.078 -2.659024,0.3631 -2.573677,0.8441 -4.593833,2.5556 -5.727803,4.8525 -0.826058,1.6733 -1.095012,2.944 -1.007199,4.7588 0.217877,4.502 3.338466,8.0392 7.937336,8.9969 0.81339,0.1694 2.876191,0.071 3.896977,-0.1864 z"
         id="path6535" />
      <path
         style="fill:none;fill-opacity:1;stroke:#000000;stroke-width:1.1632489;stroke-opacity:1"
         d="m 30.434149,1027.6409 c -0.934321,-0.2194 -2.398328,-1.0873 -3.118181,-1.8484 -2.480698,-2.623 -2.418499,-6.5741 0.143591,-9.1202 2.522587,-2.507 6.557199,-2.5048 9.122058,0 1.603993,1.5694 2.303559,3.9386 1.80349,6.1077 -0.518332,2.2485 -2.614507,4.3444 -4.863113,4.8629 -0.736116,0.1697 -2.350973,0.166 -3.087845,-0.012 z"
         id="path6533" />
      <path
         style="fill:none;fill-opacity:1;stroke:#000000;stroke-width:1.1632489;stroke-opacity:1"
         d="m 21.270726,1012.8887 c -0.0976,-0.5202 -0.682222,-1.113 -1.223284,-1.2405 -0.478723,-0.1128 -1.244048,0.1971 -1.543771,0.625 -0.450084,0.6426 -0.196298,1.7722 0.482702,2.1487 0.452294,0.2506 1.373692,0.2394 1.730711,-0.056 0.357018,-0.2951 0.650413,-0.9615 0.553642,-1.4773 z"
         id="path6529" />
    </g>
  </g>
</svg>
