<?xml version="1.0" encoding="UTF-8" standalone="no"?>
<!-- Created with Inkscape (http://www.inkscape.org/) -->

<svg xmlns:dc="http://purl.org/dc/elements/1.1/" xmlns:cc="http://creativecommons.org/ns#" xmlns:rdf="http://www.w3.org/1999/02/22-rdf-syntax-ns#" xmlns:svg="http://www.w3.org/2000/svg" xmlns="http://www.w3.org/2000/svg" version="1.1" width="68" height="53" viewBox="-0.462891 -0.018555 68 53" id="svg2" xml:space="preserve"><metadata id="metadata14"><rdf:RDF><cc:Work rdf:about=""><dc:format>image/svg+xml</dc:format><dc:type rdf:resource="http://purl.org/dc/dcmitype/StillImage" /><dc:title></dc:title></cc:Work></rdf:RDF></metadata>
<defs id="defs4">
</defs>
<path d="M 60.37793,0 H 6.289551 C 2.81543,0 0,2.802734 0,6.260742 v 40.071289 c 0,3.458008 2.81543,6.260742 6.289551,6.260742 H 60.37793 c 3.473633,0 6.288086,-2.802734 6.288086,-6.260742 V 6.260742 C 66.666016,2.802734 63.851563,0 60.37793,0 z M 20.739258,5.193359 c 1.229492,0 2.226074,0.991699 2.226074,2.215332 0,1.224121 -0.996582,2.21582 -2.226074,2.21582 -1.229492,0 -2.226074,-0.991699 -2.226074,-2.21582 0,-1.223632 0.996582,-2.215332 2.226074,-2.215332 z m -6.660645,0 c 1.229492,0 2.226074,0.991699 2.226074,2.215332 0,1.224121 -0.996582,2.21582 -2.226074,2.21582 -1.229004,0 -2.226074,-0.991699 -2.226074,-2.21582 0,-1.223632 0.99707,-2.215332 2.226074,-2.215332 z m -6.67041,0 c 1.223633,0 2.215332,0.991699 2.215332,2.215332 0,1.224121 -0.991699,2.21582 -2.215332,2.21582 -1.223633,0 -2.215332,-0.991699 -2.215332,-2.21582 0,-1.223632 0.991699,-2.215332 2.215332,-2.215332 z M 64.444336,45.18457 c 0,2.962891 -2.22168,5.185547 -5.18457,5.185547 H 7.407715 c -2.963379,0 -5.185547,-2.222656 -5.185547,-5.185547 V 13.333496 c 0,0.0049 62.14502,0 62.222168,0 V 45.18457 z" id="path6" />


<path d="m 5.3691063,21.009388 0,6.863626 54.9094277,0 0,-6.863626 z m 0,13.727252 0,6.863625 34.3183947,0 0,-6.863625 z" id="path3386" /></svg>