<?xml version="1.0" encoding="UTF-8" standalone="no"?>
<!-- Created with Inkscape (http://www.inkscape.org/) -->

<svg xmlns:dc="http://purl.org/dc/elements/1.1/" xmlns:cc="http://creativecommons.org/ns#" xmlns:rdf="http://www.w3.org/1999/02/22-rdf-syntax-ns#" xmlns:svg="http://www.w3.org/2000/svg" xmlns="http://www.w3.org/2000/svg" version="1.2" width="64" height="64" viewBox="0 0 64 64" id="svg3254" xml:space="preserve"><metadata id="metadata11"><rdf:RDF><cc:Work rdf:about=""><dc:format>image/svg+xml</dc:format><dc:type rdf:resource="http://purl.org/dc/dcmitype/StillImage" /><dc:title></dc:title></cc:Work></rdf:RDF></metadata><defs id="defs9" />
<g id="layer1">
	<g transform="matrix(1.5756397,0,0,1.6644338,54.170963,-1788.6456)" id="g3219">
		<g transform="matrix(0.63466286,0,0,0.60080491,-55.333181,1055.0231)" id="g3488">
			<path d="M 90.122,87.857 H 62.31 L 90.594,59.568 c 2.043,-2.042 2.043,-5.366 0,-7.409 L 80.59,42.157 c -0.795,-0.796 -1.785,-1.26 -2.817,-1.436 0.002,0 -4.577,0.241 -8.999,0.744 -1.358,0.153 -2.492,0.923 -3.284,1.714 L 37.616,71.055 c -2.043,2.043 -2.043,5.365 0,7.407 l 10.003,10.003 c 0.982,0.984 2.296,1.527 3.691,1.527 0.109,0 6.752,-0.131 6.821,-0.135 0.335,-0.031 1.14,-0.123 1.14,-0.123 h 30.851 c 0.518,0 0.938,-0.421 0.938,-0.939 0.001,-0.517 -0.421,-0.938 -0.938,-0.938 z M 60.339,86.862 c -1.226,1.225 -3.218,1.225 -4.446,0 L 45.89,76.86 c -1.226,-1.228 -1.226,-3.222 0,-4.445 L 60.138,58.167 74.544,72.655 60.339,86.862 z M 72.661,42.961 75.489,42.73 60.095,58.125 57.737,57.887 72.661,42.961 z M 39.098,76.983 c -1.227,-1.227 -1.227,-3.221 0,-4.448 l 15.049,-15.049 3.346,0.359 -13.086,13.086 c -2.042,2.042 -2.042,5.368 0,7.409 l 9.508,9.508 c -0.152,0.003 -0.289,0.005 -0.435,0.008 H 50.904 C 50.222,87.768 49.59,87.475 49.099,86.983 l -10.001,-10 z" id="path3495" style="fill:#042fb5" />
		</g>
	</g>
</g>
</svg>