<?xml version="1.0" encoding="UTF-8" standalone="no"?>
<svg
   xmlns:dc="http://purl.org/dc/elements/1.1/"
   xmlns:cc="http://creativecommons.org/ns#"
   xmlns:rdf="http://www.w3.org/1999/02/22-rdf-syntax-ns#"
   xmlns:svg="http://www.w3.org/2000/svg"
   xmlns="http://www.w3.org/2000/svg"
   id="svg3254"
   height="64"
   width="64"
   version="1.1">
  <defs
     id="defs3256" />
  <metadata
     id="metadata3259">
    <rdf:RDF>
      <cc:Work
         rdf:about="">
        <dc:format>image/svg+xml</dc:format>
        <dc:type
           rdf:resource="http://purl.org/dc/dcmitype/StillImage" />
        <dc:title></dc:title>
      </cc:Work>
    </rdf:RDF>
  </metadata>
  <g
     id="layer1">
    <g
       style="display:inline"
       id="g3219"
       transform="matrix(1.5756397,0,0,1.6644338,54.170963,-1788.6456)">
      <g
         id="g3488"
         transform="matrix(0.63466286,0,0,0.60080491,-55.333181,1055.0231)">
        <path
           id="path3495"
           d="M 90.121527,87.856832 H 62.310073 l 28.28445,-28.288377 c 2.042733,-2.042734 2.042733,-5.366031 0,-7.408767 L 80.591011,42.156731 c -0.795799,-0.795799 -1.785502,-1.260389 -2.817798,-1.4358 0.0017,5.61e-4 -4.576959,0.241542 -8.998683,0.744239 -1.35902,0.153556 -2.493313,0.923575 -3.284066,1.713768 l -27.874789,27.87647 c -2.042735,2.042734 -2.042735,5.364349 0,7.407085 L 47.618633,88.46601 c 0.982417,0.9841 2.296044,1.526587 3.691493,1.526587 0.108722,0 6.752515,-0.131138 6.821447,-0.1345 0.335131,-0.03137 1.139336,-0.122734 1.139336,-0.122734 h 30.850057 c 0.51783,0 0.939264,-0.421436 0.939264,-0.939266 0.0012,-0.517828 -0.420314,-0.939265 -0.938703,-0.939265 z M 60.338511,86.862085 c -1.225641,1.223959 -3.218499,1.223959 -4.445821,0 L 45.889735,76.860247 c -1.226203,-1.227882 -1.226203,-3.221858 0,-4.446378 L 60.13788,58.166282 74.542946,72.65541 60.338511,86.862085 z M 72.66105,42.961495 75.488937,42.730042 60.094728,58.12481 57.736476,57.886631 72.66105,42.961495 z M 39.097989,76.98298 c -1.226762,-1.226201 -1.226762,-3.220177 0,-4.44806 l 15.048988,-15.04899 3.346276,0.359231 -13.085832,13.085834 c -2.042737,2.042734 -2.042737,5.368272 0,7.408766 l 9.508103,9.508104 c -0.151875,0.0034 -0.288618,0.0052 -0.434887,0.0084 H 50.90438 C 50.222349,87.768285 49.590193,87.47462 49.099826,86.98257 L 39.097989,76.98299 z" />
      </g>
    </g>
  </g>
</svg>
