<?xml version="1.0" encoding="UTF-8" standalone="no"?>
<svg
   xmlns:dc="http://purl.org/dc/elements/1.1/"
   xmlns:cc="http://creativecommons.org/ns#"
   xmlns:rdf="http://www.w3.org/1999/02/22-rdf-syntax-ns#"
   xmlns:svg="http://www.w3.org/2000/svg"
   xmlns="http://www.w3.org/2000/svg"
   id="svg2"
   viewBox="0 0 24 24"
   height="24"
   width="24"
   version="1.2">
  <metadata
     id="metadata12">
    <rdf:RDF>
      <cc:Work
         rdf:about="">
        <dc:format>image/svg+xml</dc:format>
        <dc:type
           rdf:resource="http://purl.org/dc/dcmitype/StillImage" />
        <dc:title></dc:title>
      </cc:Work>
    </rdf:RDF>
  </metadata>
  <defs
     id="defs10" />
  <path
     id="path3336"
     d="m 9.0190163,11.851562 a 3.1280487,3.1280487 0 0 0 3.1289057,3.128906 3.1280487,3.1280487 0 0 0 3.128907,-3.128906 3.1280487,3.1280487 0 0 0 -3.128907,-3.1289057 3.1280487,3.1280487 0 0 0 -3.1289057,3.1289057 z m 1.0078127,0 a 2.1213202,2.1213202 0 0 1 2.121093,-2.1210937 2.1213202,2.1213202 0 0 1 2.121095,2.1210937 2.1213202,2.1213202 0 0 1 -2.121095,2.121093 2.1213202,2.1213202 0 0 1 -2.121093,-2.121093 z"
     style="opacity:1;fill:#000000;fill-opacity:1;stroke:none;stroke-width:0.70899999;stroke-linecap:round;stroke-miterlimit:4;stroke-dasharray:none;stroke-dashoffset:0;stroke-opacity:1" />
  <path
     id="rect4153"
     d="m 22.947266,11.148437 -1.640625,0 0,1.677734 1.640625,0 0,-1.677734 z m -3.216797,0 -1.525391,0 0,1.677734 1.525391,0 0,-1.677734 z m -3.101563,0 -2.205078,0 a 2.3010933,2.2112069 0 0 1 0.101563,0.644531 2.3010933,2.2112069 0 0 1 -0.267579,1.033203 l 2.371094,0 0,-1.677734 z m -6.4375,1.677734 a 2.3010933,2.2112069 0 0 1 -0.2675777,-1.033203 2.3010933,2.2112069 0 0 1 0.099609,-0.644531 l -2.3945307,0 0,1.677734 2.5624997,0 z m -4.1386717,-1.677734 -1.626953,0 0,1.677734 1.626953,0 0,-1.677734 z m -3.203125,0 -1.800781,0 0,1.677734 1.800781,0 0,-1.677734 z"
     style="opacity:1;fill:#000000;fill-opacity:1;stroke:none;stroke-width:0.70899999;stroke-linecap:round;stroke-miterlimit:4;stroke-dasharray:none;stroke-dashoffset:0;stroke-opacity:1" />
  <circle
     r="0"
     cy="13.5"
     cx="74.440681"
     id="path3336-6"
     style="opacity:1;fill:#000000;fill-opacity:1;stroke:none;stroke-width:0.70899999;stroke-linecap:round;stroke-miterlimit:4;stroke-dasharray:none;stroke-dashoffset:0;stroke-opacity:1" />
  <circle
     r="0"
     style="opacity:1;fill:#fffdfd;fill-opacity:1;stroke:none;stroke-width:0.70899999;stroke-linecap:round;stroke-miterlimit:4;stroke-dasharray:none;stroke-dashoffset:0;stroke-opacity:1"
     id="circle3343-7"
     cx="74.440681"
     cy="13.5" />
</svg>
