<?xml version="1.0" encoding="UTF-8" standalone="no"?>
<!-- Created with Inkscape (http://www.inkscape.org/) -->

<svg xmlns:dc="http://purl.org/dc/elements/1.1/" xmlns:cc="http://creativecommons.org/ns#" xmlns:rdf="http://www.w3.org/1999/02/22-rdf-syntax-ns#" xmlns:svg="http://www.w3.org/2000/svg" xmlns="http://www.w3.org/2000/svg" version="1.2" width="24" height="24" viewBox="0 0 24 24" id="svg2">
  <metadata id="metadata12">
    <rdf:RDF>
      <cc:Work rdf:about="">
        <dc:format>image/svg+xml</dc:format>
        <dc:type rdf:resource="http://purl.org/dc/dcmitype/StillImage" />
        <dc:title></dc:title>
      </cc:Work>
    </rdf:RDF>
  </metadata>
  <defs id="defs10" />
  <g id="g4">
    <path d="m 8.6983048,19.732203 c 0,1.839023 1.4965692,3.335593 3.3355932,3.335593 1.839024,0 3.335594,-1.49657 3.335594,-3.335593 0,-1.447648 -0.932854,-2.669587 -2.223729,-3.129899 l 0,-9.3051922 c 1.290875,-0.461423 2.223729,-1.683362 2.223729,-3.13101 0,-1.839024 -1.49657,-3.33559301 -3.335594,-3.33559301 -1.839024,-1e-8 -3.3355932,1.49656901 -3.3355932,3.33559301 0,1.447648 0.932854,2.669587 2.2237292,3.13101 l 0,9.3040812 c -1.2908752,0.461423 -2.2237292,1.683362 -2.2237292,3.13101 z m 3.3355932,1.111864 c -0.613749,0 -1.111864,-0.499227 -1.111864,-1.111864 0,-0.612638 0.498115,-1.111865 1.111864,-1.111865 0.613749,0 1.111865,0.499227 1.111865,1.111865 0,0.612637 -0.498116,1.111864 -1.111865,1.111864 z m 0,-17.7898292 c 0.613749,0 1.111865,0.499227 1.111865,1.111864 0,0.612637 -0.498116,1.111865 -1.111865,1.111865 -0.613749,0 -1.111864,-0.499228 -1.111864,-1.111865 0,-0.612637 0.498115,-1.111864 1.111864,-1.111864 z" id="path6" />
  </g>
</svg>
