<?xml version="1.0" encoding="UTF-8" standalone="no"?>
<!-- Created with Inkscape (http://www.inkscape.org/) -->

<svg xmlns:dc="http://purl.org/dc/elements/1.1/" xmlns:cc="http://creativecommons.org/ns#" xmlns:rdf="http://www.w3.org/1999/02/22-rdf-syntax-ns#" xmlns:svg="http://www.w3.org/2000/svg" xmlns="http://www.w3.org/2000/svg" version="1.2" width="24" height="24" viewBox="0 0 24 24" id="svg2">
  <metadata id="metadata12">
    <rdf:RDF>
      <cc:Work rdf:about="">
        <dc:format>image/svg+xml</dc:format>
        <dc:type rdf:resource="http://purl.org/dc/dcmitype/StillImage" />
        <dc:title></dc:title>
      </cc:Work>
    </rdf:RDF>
  </metadata>
  <defs id="defs10" />
  <g id="g4">
    <path d="m 4.2508478,8.6135588 c -1.839023,0 -3.33559301,1.4965692 -3.33559301,3.3355932 0,1.839024 1.49657001,3.335594 3.33559301,3.335594 1.447648,0 2.669587,-0.932854 3.129899,-2.223729 l 9.3051922,0 c 0.461423,1.290875 1.683362,2.223729 3.13101,2.223729 1.839024,0 3.335593,-1.49657 3.335593,-3.335594 0,-1.839024 -1.496569,-3.3355932 -3.335593,-3.3355932 -1.447648,0 -2.669587,0.932854 -3.13101,2.2237292 l -9.3040812,0 C 6.9204348,9.5464128 5.6984958,8.6135588 4.2508478,8.6135588 z m -1.111864,3.3355932 c 0,-0.613749 0.499227,-1.111864 1.111864,-1.111864 0.612638,0 1.111865,0.498115 1.111865,1.111864 0,0.613749 -0.499227,1.111865 -1.111865,1.111865 -0.612637,0 -1.111864,-0.498116 -1.111864,-1.111865 z m 17.7898292,0 c 0,0.613749 -0.499227,1.111865 -1.111864,1.111865 -0.612637,0 -1.111865,-0.498116 -1.111865,-1.111865 0,-0.613749 0.499228,-1.111864 1.111865,-1.111864 0.612637,0 1.111864,0.498115 1.111864,1.111864 z" id="path6" />
  </g>
</svg>
