<?xml version="1.0" encoding="UTF-8" standalone="no"?>
<!-- Created with Inkscape (http://www.inkscape.org/) -->

<svg xmlns:rdf="http://www.w3.org/1999/02/22-rdf-syntax-ns#" xmlns:svg="http://www.w3.org/2000/svg" xmlns="http://www.w3.org/2000/svg" version="1.2" width="24" height="24" viewBox="0 0 24 24" id="svg2">
  <defs id="defs8" />
  <path d="M 22.3,8 H 19.9 C 19.5,6.8 18.4,6 17.1,6 h -6 c 0,-1.1 -0.9,-2 -2,-2 H 5 C 3.3,4 2,5.3 2,7 v 10 c 0,1.7 1.3,3 3,3 h 12 c 1.7,0 3.4,-1.3 3.8,-3 L 23,9 C 23.1,8.4 22.8,8 22.3,8 z M 4,9 V 7 C 4,6.4 4.4,6 5,6 h 4 c 0,1.1 0.9,2 2,2 h 6 c 0.6,0 1,0.4 1,1 H 6.9 C 6.3,9 5.8,9.4 5.6,10 L 4,16.3 V 9 z m 14.9,7.5 C 18.7,17.3 17.8,18 17,18 H 5 C 5,18 4.6,17.8 4.8,17.2 l 1.9,-7 C 6.7,10.1 6.9,10 7,10 h 13.7 l -1.8,6.5 z" id="path4" />
</svg>
