<?xml version="1.0" encoding="UTF-8" standalone="no"?>
<!-- Created with Inkscape (http://www.inkscape.org/) -->

<svg xmlns:dc="http://purl.org/dc/elements/1.1/" xmlns:cc="http://creativecommons.org/ns#" xmlns:rdf="http://www.w3.org/1999/02/22-rdf-syntax-ns#" xmlns:svg="http://www.w3.org/2000/svg" xmlns="http://www.w3.org/2000/svg" version="1.2" width="24" height="24" viewBox="0 0 24 24" id="svg2">
  <metadata id="metadata12">
    <rdf:RDF>
      <cc:Work rdf:about="">
        <dc:format>image/svg+xml</dc:format>
        <dc:type rdf:resource="http://purl.org/dc/dcmitype/StillImage" />
        <dc:title></dc:title>
      </cc:Work>
    </rdf:RDF>
  </metadata>
  <defs id="defs10" />
  <g id="g4">
    <path d="m 4.2508478,1.2237283 c -1.839023,0 -3.33559301,1.4965692 -3.33559301,3.3355927 0,1.839025 1.49657001,3.335595 3.33559301,3.335595 1.447648,0 2.669587,-0.932855 3.129899,-2.22373 l 9.3051922,0 c 0.461423,1.290875 1.683362,2.22373 3.13101,2.22373 1.839024,0 3.335593,-1.49657 3.335593,-3.335595 0,-1.8390235 -1.496569,-3.3355927 -3.335593,-3.3355927 -1.447648,0 -2.669587,0.932854 -3.13101,2.2237292 l -9.3040812,0 C 6.9204348,2.1565823 5.6984958,1.2237283 4.2508478,1.2237283 z M 3.1389838,4.559321 c 0,-0.6137485 0.499227,-1.1118635 1.111864,-1.1118635 0.612638,0 1.111865,0.498115 1.111865,1.1118635 0,0.61375 -0.499227,1.111865 -1.111865,1.111865 -0.612637,0 -1.111864,-0.498115 -1.111864,-1.111865 z m 17.7898292,0 c 0,0.61375 -0.499227,1.111865 -1.111864,1.111865 -0.612637,0 -1.111865,-0.498115 -1.111865,-1.111865 0,-0.6137485 0.499228,-1.1118635 1.111865,-1.1118635 0.612637,0 1.111864,0.498115 1.111864,1.1118635 z" id="path6" />
    <path d="m 11.999999,8.1864411 c -1.999576,0 -3.6355917,1.6360178 -3.6355917,3.6355939 h 1.8177947 c 0,-1.017967 0.799831,-1.817797 1.817797,-1.817797 1.017966,0 1.817797,0.79983 1.817797,1.817797 v 3.635593 H 6.5466099 v 7.271187 H 17.453389 v -7.271187 h -1.817796 v -3.635593 c 0,-1.9995761 -1.636018,-3.6355939 -3.635594,-3.6355939 z" id="path3014" />
  </g>
</svg>
