<?xml version="1.0" encoding="UTF-8" standalone="no"?>
<!-- Created with Inkscape (http://www.inkscape.org/) -->

<svg xmlns:dc="http://purl.org/dc/elements/1.1/" xmlns:cc="http://creativecommons.org/ns#" xmlns:rdf="http://www.w3.org/1999/02/22-rdf-syntax-ns#" xmlns:svg="http://www.w3.org/2000/svg" xmlns="http://www.w3.org/2000/svg" version="1.2" width="24" height="24" viewBox="0 0 24 24" id="svg2">
  <metadata id="metadata12">
    <rdf:RDF>
      <cc:Work rdf:about="">
        <dc:format>image/svg+xml</dc:format>
        <dc:type rdf:resource="http://purl.org/dc/dcmitype/StillImage" />
        <dc:title></dc:title>
      </cc:Work>
    </rdf:RDF>
  </metadata>
  <defs id="defs10" />
  <g id="g4">
    <path d="m 2.2915249,19.783051 c 0,1.839023 1.4965695,3.335593 3.3355925,3.335593 1.839025,0 3.335595,-1.49657 3.335595,-3.335593 0,-1.447648 -0.932855,-2.669587 -2.22373,-3.129899 l 0,-9.3051925 c 1.290875,-0.461423 2.22373,-1.683362 2.22373,-3.13101 0,-1.839024 -1.49657,-3.33559299 -3.335595,-3.33559299 -1.839023,0 -3.3355925,1.49656899 -3.3355925,3.33559299 0,1.447648 0.932854,2.669587 2.2237295,3.13101 l 0,9.3040815 c -1.2908755,0.461423 -2.2237295,1.683362 -2.2237295,3.13101 z m 3.3355925,1.111864 c -0.613748,0 -1.111863,-0.499227 -1.111863,-1.111864 0,-0.612638 0.498115,-1.111865 1.111863,-1.111865 0.61375,0 1.111865,0.499227 1.111865,1.111865 0,0.612637 -0.498115,1.111864 -1.111865,1.111864 z m 0,-17.7898295 c 0.61375,0 1.111865,0.499227 1.111865,1.111864 0,0.612637 -0.498115,1.111865 -1.111865,1.111865 -0.613748,0 -1.111863,-0.499228 -1.111863,-1.111865 0,-0.612637 0.498115,-1.111864 1.111863,-1.111864 z" id="path6" />
    <path d="m 17.084745,3.7627115 c -1.999576,0 -3.635591,1.6360178 -3.635591,3.6355939 h 1.817794 c 0,-1.017967 0.799831,-1.817797 1.817797,-1.817797 1.017966,0 1.817797,0.79983 1.817797,1.817797 v 3.6355926 h -7.271186 v 7.271188 H 22.538135 V 11.033898 H 20.720339 V 7.3983054 c 0,-1.9995761 -1.636018,-3.6355939 -3.635594,-3.6355939 z" id="path3014" />
  </g>
</svg>
