<?xml version="1.0" encoding="UTF-8" standalone="no"?>
<!-- Created with Inkscape (http://www.inkscape.org/) -->

<svg xmlns:dc="http://purl.org/dc/elements/1.1/" xmlns:cc="http://creativecommons.org/ns#" xmlns:rdf="http://www.w3.org/1999/02/22-rdf-syntax-ns#" xmlns:svg="http://www.w3.org/2000/svg" xmlns="http://www.w3.org/2000/svg" version="1.2" width="24" height="24" viewBox="0 0 24 24" id="svg2">
  <metadata id="metadata12">
    <rdf:RDF>
      <cc:Work rdf:about="">
        <dc:format>image/svg+xml</dc:format>
        <dc:type rdf:resource="http://purl.org/dc/dcmitype/StillImage" />
        <dc:title></dc:title>
      </cc:Work>
    </rdf:RDF>
  </metadata>
  <defs id="defs10" />
  <g id="g4">
    <path d="m 2.2915249,19.783051 c 0,1.839023 1.4965695,3.335593 3.3355925,3.335593 1.839025,0 3.335595,-1.49657 3.335595,-3.335593 0,-1.447648 -0.932855,-2.669587 -2.22373,-3.129899 l 0,-9.3051925 c 1.290875,-0.461423 2.22373,-1.683362 2.22373,-3.13101 0,-1.839024 -1.49657,-3.33559299 -3.335595,-3.33559299 -1.839023,0 -3.3355925,1.49656899 -3.3355925,3.33559299 0,1.447648 0.932854,2.669587 2.2237295,3.13101 l 0,9.3040815 c -1.2908755,0.461423 -2.2237295,1.683362 -2.2237295,3.13101 z m 3.3355925,1.111864 c -0.613748,0 -1.111863,-0.499227 -1.111863,-1.111864 0,-0.612638 0.498115,-1.111865 1.111863,-1.111865 0.61375,0 1.111865,0.499227 1.111865,1.111865 0,0.612637 -0.498115,1.111864 -1.111865,1.111864 z m 0,-17.7898295 c 0.61375,0 1.111865,0.499227 1.111865,1.111864 0,0.612637 -0.498115,1.111865 -1.111865,1.111865 -0.613748,0 -1.111863,-0.499228 -1.111863,-1.111865 0,-0.612637 0.498115,-1.111864 1.111863,-1.111864 z" id="path6" />
    <path d="m 17.135593,5.4491533 c -2.026877,0 -3.685231,1.6583532 -3.685231,3.6852302 v 1.8426155 h -1.842615 v 7.370459 h 11.05569 V 10.976999 H 20.820824 V 9.1343835 c 0,-2.026877 -1.658354,-3.6852302 -3.685231,-3.6852302 z m 0,1.8426152 c 1.031864,0 1.842614,0.81075 1.842614,1.842615 V 10.976999 H 15.292979 V 9.1343835 c 0,-1.031865 0.81075,-1.842615 1.842614,-1.842615 z" id="path3043" />
  </g>
</svg>
