<?xml version="1.0" encoding="UTF-8" standalone="no"?>
<!-- Created with Inkscape (http://www.inkscape.org/) -->

<svg xmlns:dc="http://purl.org/dc/elements/1.1/" xmlns:cc="http://creativecommons.org/ns#" xmlns:rdf="http://www.w3.org/1999/02/22-rdf-syntax-ns#" xmlns:svg="http://www.w3.org/2000/svg" xmlns="http://www.w3.org/2000/svg" version="1.2" width="24" height="24" viewBox="0 0 24 24" id="svg2">
  <metadata id="metadata12">
    <rdf:RDF>
      <cc:Work rdf:about="">
        <dc:format>image/svg+xml</dc:format>
        <dc:type rdf:resource="http://purl.org/dc/dcmitype/StillImage" />
        <dc:title></dc:title>
      </cc:Work>
    </rdf:RDF>
  </metadata>
  <defs id="defs10" />
  <g id="g4">
    <path d="m 4.2508478,1.2237283 c -1.839023,0 -3.33559301,1.4965692 -3.33559301,3.3355927 0,1.839025 1.49657001,3.335595 3.33559301,3.335595 1.447648,0 2.669587,-0.932855 3.129899,-2.22373 l 9.3051922,0 c 0.461423,1.290875 1.683362,2.22373 3.13101,2.22373 1.839024,0 3.335593,-1.49657 3.335593,-3.335595 0,-1.8390235 -1.496569,-3.3355927 -3.335593,-3.3355927 -1.447648,0 -2.669587,0.932854 -3.13101,2.2237292 l -9.3040812,0 C 6.9204348,2.1565823 5.6984958,1.2237283 4.2508478,1.2237283 z M 3.1389838,4.559321 c 0,-0.6137485 0.499227,-1.1118635 1.111864,-1.1118635 0.612638,0 1.111865,0.498115 1.111865,1.1118635 0,0.61375 -0.499227,1.111865 -1.111865,1.111865 -0.612637,0 -1.111864,-0.498115 -1.111864,-1.111865 z m 17.7898292,0 c 0,0.61375 -0.499227,1.111865 -1.111864,1.111865 -0.612637,0 -1.111865,-0.498115 -1.111865,-1.111865 0,-0.6137485 0.499228,-1.1118635 1.111865,-1.1118635 0.612637,0 1.111864,0.498115 1.111864,1.1118635 z" id="path6" />
    <path d="m 11.881357,9.7203386 c -2.0268766,0 -3.6852308,1.6583534 -3.6852308,3.6852304 v 1.842616 H 6.3535111 v 7.370458 H 17.409201 v -7.370458 h -1.842613 v -1.842616 c 0,-2.026877 -1.658354,-3.6852304 -3.685231,-3.6852304 z m 0,1.8426154 c 1.031864,0 1.842614,0.81075 1.842614,1.842615 v 1.842616 h -3.685228 v -1.842616 c 0,-1.031865 0.81075,-1.842615 1.842614,-1.842615 z" id="path3043" />
  </g>
</svg>
