<?xml version="1.0" encoding="UTF-8" standalone="no"?>
<svg
   xmlns:dc="http://purl.org/dc/elements/1.1/"
   xmlns:cc="http://creativecommons.org/ns#"
   xmlns:rdf="http://www.w3.org/1999/02/22-rdf-syntax-ns#"
   xmlns:svg="http://www.w3.org/2000/svg"
   xmlns="http://www.w3.org/2000/svg"
   id="svg2"
   viewBox="0 0 24 24"
   height="24"
   width="24"
   version="1.2">
  <metadata
     id="metadata12">
    <rdf:RDF>
      <cc:Work
         rdf:about="">
        <dc:format>image/svg+xml</dc:format>
        <dc:type
           rdf:resource="http://purl.org/dc/dcmitype/StillImage" />
        <dc:title></dc:title>
      </cc:Work>
    </rdf:RDF>
  </metadata>
  <defs
     id="defs10" />
  <path
     id="path3336"
     d="m 8.7009423,11.864221 a 3.1280487,3.1280487 0 0 0 3.1289067,3.128906 3.1280487,3.1280487 0 0 0 3.128906,-3.128906 3.1280487,3.1280487 0 0 0 -3.128906,-3.1289059 3.1280487,3.1280487 0 0 0 -3.1289067,3.1289059 z m 1.0078124,0 a 2.1213202,2.1213202 0 0 1 2.1210943,-2.1210939 2.1213202,2.1213202 0 0 1 2.121094,2.1210939 2.1213202,2.1213202 0 0 1 -2.121094,2.121094 2.1213202,2.1213202 0 0 1 -2.1210943,-2.121094 z"
     style="opacity:1;fill:#000000;fill-opacity:1;stroke:none;stroke-width:0.70899999;stroke-linecap:round;stroke-miterlimit:4;stroke-dasharray:none;stroke-dashoffset:0;stroke-opacity:1" />
  <circle
     r="0"
     cy="13.5"
     cx="74.440681"
     id="path3336-6"
     style="opacity:1;fill:#000000;fill-opacity:1;stroke:none;stroke-width:0.70899999;stroke-linecap:round;stroke-miterlimit:4;stroke-dasharray:none;stroke-dashoffset:0;stroke-opacity:1" />
  <circle
     r="0"
     style="opacity:1;fill:#fffdfd;fill-opacity:1;stroke:none;stroke-width:0.70899999;stroke-linecap:round;stroke-miterlimit:4;stroke-dasharray:none;stroke-dashoffset:0;stroke-opacity:1"
     id="circle3343-7"
     cx="74.440681"
     cy="13.5" />
  <path
     id="path4154"
     d="M 3.2141393,18.8352 7.8153934,11.926279 3.3352254,5.1991721"
     style="fill:none;fill-rule:evenodd;stroke:#000000;stroke-width:0.82534468px;stroke-linecap:butt;stroke-linejoin:miter;stroke-opacity:1" />
  <path
     style="fill:none;fill-rule:evenodd;stroke:#000000;stroke-width:0.82534468px;stroke-linecap:butt;stroke-linejoin:miter;stroke-opacity:1"
     d="M 0.48159108,18.8352 5.0828452,11.926279 0.60267718,5.1991721"
     id="path4156" />
  <path
     style="fill:none;fill-rule:evenodd;stroke:#000000;stroke-width:0.82534468px;stroke-linecap:butt;stroke-linejoin:miter;stroke-opacity:1"
     d="M 20.479931,18.8352 15.878677,11.926279 20.358845,5.1991721"
     id="path4158" />
  <path
     id="path4160"
     d="M 23.212479,18.8352 18.611225,11.926279 23.091393,5.1991721"
     style="fill:none;fill-rule:evenodd;stroke:#000000;stroke-width:0.82534468px;stroke-linecap:butt;stroke-linejoin:miter;stroke-opacity:1" />
</svg>
