<?xml version="1.0" encoding="UTF-8" standalone="no"?>
<!-- Created with Inkscape (http://www.inkscape.org/) -->

<svg xmlns:dc="http://purl.org/dc/elements/1.1/" xmlns:cc="http://creativecommons.org/ns#" xmlns:rdf="http://www.w3.org/1999/02/22-rdf-syntax-ns#" xmlns:svg="http://www.w3.org/2000/svg" xmlns="http://www.w3.org/2000/svg" version="1.1" width="64" height="64" id="svg3254">
  <defs id="defs3256" />
  <metadata id="metadata3259">
    <rdf:RDF>
      <cc:Work rdf:about="">
        <dc:format>image/svg+xml</dc:format>
        <dc:type rdf:resource="http://purl.org/dc/dcmitype/StillImage" />
        <dc:title></dc:title>
      </cc:Work>
    </rdf:RDF>
  </metadata>
  <g id="layer1">
    <g transform="matrix(1.5756397,0,0,1.6644338,54.170963,-1788.6456)" id="g3219" style="display:inline">
      <g transform="matrix(0.63466286,0,0,0.60080491,-55.333181,1055.0231)" id="g3488">
        <path d="m 89.527433,64.796857 c 0,13.330947 -10.804079,24.134502 -24.134474,24.134502 -13.329856,0 -24.133935,-10.803555 -24.133935,-24.134502 0,-13.330947 10.804079,-24.135039 24.133935,-24.135039 13.330395,0 24.134474,10.803554 24.134474,24.135039 z" id="path3474" style="fill:none;stroke:#000000;stroke-width:6;stroke-miterlimit:10" />
        <path d="m 68.948411,59.507519 -3.057829,14.43917 c -0.128038,0.551959 -0.168924,0.975881 -0.168924,1.358917 0,1.189456 0.549807,1.572493 1.741952,1.572493 0.761768,0 1.103917,-0.126424 1.358378,-0.253385 -0.214113,3.013719 -2.379985,4.372636 -4.673358,4.372636 -2.54837,0 -4.544783,-1.528378 -4.544783,-5.097822 0,-0.804269 0.128038,-1.739264 0.339998,-2.760335 l 2.888907,-13.632212 h 6.115659 z M 67.037536,48.472098 c 1.868375,0 3.397828,1.527841 3.397828,3.395679 0,1.869991 -1.529991,3.357484 -3.397828,3.357484 -1.869988,0 -3.354789,-1.487493 -3.354789,-3.357484 -5.38e-4,-1.867838 1.484801,-3.395679 3.354789,-3.395679 z" id="path3476" />
      </g>
    </g>
  </g>
</svg>
