<?xml version="1.0" encoding="UTF-8" standalone="no"?>
<svg
   xmlns:dc="http://purl.org/dc/elements/1.1/"
   xmlns:cc="http://creativecommons.org/ns#"
   xmlns:rdf="http://www.w3.org/1999/02/22-rdf-syntax-ns#"
   xmlns:svg="http://www.w3.org/2000/svg"
   xmlns="http://www.w3.org/2000/svg"
   version="1.1"
   id="svg5332"
   viewBox="0 0 64.000001 64.000001"
   height="64"
   width="64">
  <defs
     id="defs5334" />
  <metadata
     id="metadata5337">
    <rdf:RDF>
      <cc:Work
         rdf:about="">
        <dc:format>image/svg+xml</dc:format>
        <dc:type
           rdf:resource="http://purl.org/dc/dcmitype/StillImage" />
        <dc:title></dc:title>
      </cc:Work>
    </rdf:RDF>
  </metadata>
  <g
     transform="translate(0,-988.36216)"
     id="layer1">
    <circle
       r="26.662109"
       id="path7511-3-8-6-2-5-2-6-2"
       style="fill:none;stroke:#000000;stroke-width:4.03292418;stroke-miterlimit:4;stroke-dasharray:none;stroke-opacity:1"
       cx="32"
       cy="1020.3622" />
    <path
       id="path6700"
       d="m 14.03679,1030.0123 c -2.35397,-0.7404 -2.770983,-5.7332 -1.120218,-13.4122 0.987656,-4.5944 2.475067,-8.7912 4.188046,-11.8168 1.229617,-2.1719 1.873402,-3.1037 2.610178,-3.778 1.504901,-1.37737 2.967128,-1.37137 5.395579,0.022 2.201718,1.2632 4.0896,1.7225 7.074552,1.7211 2.999245,0 4.913924,-0.4947 7.284808,-1.8772 2.656429,-1.54897 4.551968,-1.08027 6.319358,1.5624 0.681911,1.0196 2.022303,3.4016 2.535611,4.506 1.632208,3.5117 3.357153,9.8902 3.868976,14.3068 0.206417,1.7812 0.206698,4.5038 6.33e-4,5.6858 -0.325523,1.8667 -1.091397,2.9477 -2.243528,3.1667 -0.855362,0.1626 -2.481083,-0.479 -3.915795,-1.5455 -1.121505,-0.8337 -2.918598,-2.4684 -3.968669,-3.6102 -0.949211,-1.0321 -1.899385,-1.7431 -2.948415,-2.2063 -4.08595,-1.8044 -10.574009,-1.7161 -14.30132,0.1944 -1.070496,0.5488 -1.193141,0.6492 -3.132713,2.5664 -0.990096,0.9786 -2.194672,2.0957 -2.676836,2.4824 -2.158366,1.7309 -3.797692,2.4012 -4.970247,2.0324 z"
       style="fill:none;stroke:#000000;stroke-width:2;stroke-miterlimit:4;stroke-dasharray:none;stroke-opacity:1" />
    <path
       id="path6698"
       d="m 41.765778,1015.1083 c 0.568081,-0.3537 0.79519,-1.1501 0.503341,-1.7651 -0.474937,-1.0009 -1.912339,-1.0833 -2.485963,-0.1425 -0.762667,1.2509 0.730264,2.6873 1.982622,1.9076 z"
       style="fill:#000000;fill-opacity:1" />
    <path
       id="path6696"
       d="m 24.07221,1014.7677 c 0.291529,-0.3263 0.299033,-0.3652 0.299033,-1.5474 l 0,-1.2126 1.222411,0 c 1.203103,0 1.227163,-0.01 1.523294,-0.3008 0.362081,-0.3621 0.479435,-0.8888 0.325457,-1.4606 -0.197205,-0.7324 -0.38323,-0.8207 -1.814833,-0.8608 l -1.256329,-0.035 -0.0016,-1.1263 c -9.57e-4,-0.6826 -0.05326,-1.2302 -0.132821,-1.3902 -0.342577,-0.689 -1.606617,-0.8094 -2.205777,-0.2102 -0.294573,0.2945 -0.299604,0.3201 -0.299604,1.522 l 0,1.2224 -1.212623,0 c -1.190606,0 -1.218884,0.01 -1.557457,0.3081 -0.324066,0.2895 -0.344835,0.3505 -0.344835,1.0118 0,0.6612 0.02077,0.7222 0.344835,1.0117 0.338573,0.3025 0.366851,0.3082 1.557457,0.3082 l 1.212623,0 0,1.2 c 0,1.066 0.02522,1.2321 0.225764,1.4871 0.307439,0.3908 0.571593,0.4849 1.243841,0.443 0.486296,-0.03 0.616931,-0.086 0.87112,-0.3703 z"
       style="fill:#000000;fill-opacity:1" />
    <path
       id="path6694"
       d="m 44.971269,1012.161 c 1.026948,-0.5311 0.940958,-2.094 -0.13898,-2.5261 -1.456158,-0.5827 -2.622851,1.2236 -1.478744,2.2895 0.158362,0.1475 0.359205,0.2941 0.446317,0.3258 0.311523,0.1133 0.860548,0.072 1.171407,-0.089 z"
       style="fill:#000000;fill-opacity:1" />
    <path
       id="path6692"
       d="m 38.46863,1011.7501 c 1.047319,-0.4376 1.045723,-2.0367 -0.0025,-2.5342 -0.939802,-0.4459 -1.987167,0.2186 -1.987167,1.2607 0,0.5356 0.226698,0.9299 0.700872,1.219 0.401565,0.2448 0.793586,0.2614 1.288824,0.055 z"
       style="fill:#000000;fill-opacity:1" />
    <path
       id="path6657"
       d="m 41.912778,1008.6746 c 0.302866,-0.1566 0.717835,-0.8453 0.723272,-1.2003 0.0047,-0.3094 -0.425646,-1.0206 -0.724465,-1.1971 -0.408551,-0.2414 -1.040571,-0.2308 -1.459089,0.025 -1.156022,0.7048 -0.680367,2.5384 0.658506,2.5384 0.265072,0 0.625873,-0.074 0.801776,-0.1654 z"
       style="fill:#000000;fill-opacity:1" />
    <path
       id="path5108-2-2-7-1-7-0-6"
       d="m 23.681102,1038.8276 c -0.187887,2.2169 0.87114,3.4268 3.363249,3.4791 l 7.576969,-7.7314 3.32459,-0.077 2.126185,-2.1262 0.07737,-2.0489 -1.198395,-1.3144 -1.85559,1.9716 -2.164845,-0.077 -0.07728,-1.7784 2.087527,-2.1262 -1.314372,-1.2756 -2.242163,0.04 -2.087535,2.0102 -0.115969,3.5954 z"
       style="fill:#030000;fill-opacity:1;stroke:none" />
    <path
       id="rect7808-9-3-1"
       d="m 35.565335,1035.5075 3.626322,3.6263 c 0.78845,0.7757 -1.951438,3.5883 -2.763458,2.7634 l -3.626322,-3.6263 z"
       style="fill:#000000;fill-opacity:1;stroke:none" />
    <rect
       transform="matrix(0.70710678,0.70710678,-0.70710678,0.70710678,0,0)"
       y="708.09564"
       x="743.69879"
       height="2.0641963"
       width="2.6759293"
       id="rect7828-7-5"
       style="fill:#000000;fill-opacity:1;stroke:none" />
    <rect
       transform="matrix(0.70710678,0.70710678,-0.70710678,0.70710678,0,0)"
       y="708.50305"
       x="744.7854"
       height="1.1639781"
       width="5.4537458"
       id="rect7828-5-9-9"
       style="fill:#000000;fill-opacity:1;stroke:none" />
  </g>
</svg>
