<?xml version="1.0" encoding="UTF-8" standalone="no"?>
<!-- Created with Inkscape (http://www.inkscape.org/) -->

<svg xmlns:dc="http://purl.org/dc/elements/1.1/" xmlns:cc="http://creativecommons.org/ns#" xmlns:rdf="http://www.w3.org/1999/02/22-rdf-syntax-ns#" xmlns:svg="http://www.w3.org/2000/svg" xmlns="http://www.w3.org/2000/svg" version="1.2" width="64" height="64" viewBox="0 0 64 64" id="svg3254" xml:space="preserve"><metadata id="metadata10"><rdf:RDF><cc:Work rdf:about=""><dc:format>image/svg+xml</dc:format><dc:type rdf:resource="http://purl.org/dc/dcmitype/StillImage" /><dc:title></dc:title></cc:Work></rdf:RDF></metadata><defs id="defs8" />

<g id="layer1">
	
		<g transform="matrix(1.5756397,0,0,1.6644338,54.170963,-1788.6456)" id="g3219">
		<path d="m -14.05,1077.797 c -9.455,0 -17.192,7.323 -17.192,16.275 0,8.951 7.736,16.275 17.192,16.275 4.727,0 9.112,-1.749 12.206,-4.719 l -3.095,-2.93 c -2.32,2.197 -5.545,3.58 -9.155,3.58 -7.135,0 -12.894,-5.452 -12.894,-12.206 0,-6.754 5.759,-12.206 12.894,-12.206 3.567,0 6.662,1.465 8.982,3.702 l -4.684,4.435 H 3.1 v -12.206 l -5.114,4.841 c -3.095,-2.93 -7.349,-4.841 -12.077,-4.841 h 0.041 z" id="path3441" style="fill:#002ad8" />
		<path d="m -17.177,1085.626 c 2.553,-0.958 5.429,0.219 6.441,2.636 l -3.075,1.154 c -0.341,-0.815 -1.286,-1.202 -2.147,-0.879 -0.861,0.323 -1.27,1.218 -0.928,2.032 0.341,0.815 5.075,3.621 6.122,6.125 1.049,2.504 -0.232,5.14 -2.785,6.098 -2.553,0.958 -5.43,-0.219 -6.441,-2.637 l 3.075,-1.153 c 0.341,0.815 1.286,1.202 2.147,0.879 0.861,-0.323 1.27,-1.218 0.928,-2.032 -0.439,-1.048 -5.318,-4.204 -6.122,-6.125 -0.987,-2.359 0.232,-5.14 2.785,-6.098 l 0,0 z" id="path3452" style="fill:#002ad8" />
	</g>
</g>
</svg>