<?xml version="1.0" encoding="UTF-8" standalone="no"?>
<!-- Created with Inkscape (http://www.inkscape.org/) -->

<svg xmlns:dc="http://purl.org/dc/elements/1.1/" xmlns:cc="http://creativecommons.org/ns#" xmlns:rdf="http://www.w3.org/1999/02/22-rdf-syntax-ns#" xmlns:svg="http://www.w3.org/2000/svg" xmlns="http://www.w3.org/2000/svg" version="1.1" width="64" height="64" id="svg3254">
  <defs id="defs3256" />
  <metadata id="metadata3259">
    <rdf:RDF>
      <cc:Work rdf:about="">
        <dc:format>image/svg+xml</dc:format>
        <dc:type rdf:resource="http://purl.org/dc/dcmitype/StillImage" />
        <dc:title></dc:title>
      </cc:Work>
    </rdf:RDF>
  </metadata>
  <g id="layer1">
    <g transform="matrix(1.5756397,0,0,1.6644338,54.170963,-1788.6456)" id="g3219" style="display:inline">
      <path d="m -14.0496,1077.7967 c -9.455526,0 -17.191866,7.3233 -17.191866,16.2746 0,8.9506 7.73634,16.2746 17.191866,16.2746 4.7277622,0 9.1116881,-1.7493 12.2062302,-4.7194 l -3.0945421,-2.9297 c -2.3209027,2.1969 -5.5443771,3.5805 -9.1546711,3.5805 -7.134623,0 -12.893898,-5.4523 -12.893898,-12.206 0,-6.7545 5.759275,-12.206 12.893898,-12.206 3.567319,0 6.6618533,1.4649 8.9827563,3.7023 l -4.6847867,4.4351 H 3.0992902 v -12.206 l -5.1145825,4.8414 c -3.0945344,-2.9297 -7.3495203,-4.8414 -12.0772907,-4.8414 z" id="path3441" />
      <path d="m -17.17734,1085.626 c 2.552571,-0.9574 5.429568,0.2195 6.44112,2.6363 l -3.075396,1.1539 c -0.341196,-0.8151 -1.285932,-1.2018 -2.147034,-0.8789 -0.86111,0.3231 -1.269543,1.2173 -0.928348,2.0325 0.341197,0.8151 5.074068,3.6209 6.122113,6.1244 1.0481409,2.5039 -0.232373,5.1401 -2.784956,6.0978 -2.552568,0.9575 -5.429564,-0.2194 -6.441212,-2.6365 l 3.075393,-1.1538 c 0.341197,0.815 1.28603,1.2019 2.147128,0.879 0.861114,-0.323 1.269453,-1.2176 0.928257,-2.0327 -0.438699,-1.0479 -5.317867,-4.2032 -6.122117,-6.1243 -0.987208,-2.3585 0.232468,-5.1399 2.785052,-6.0977 z" id="path3452" />
    </g>
  </g>
</svg>
