<?xml version="1.0" encoding="UTF-8" standalone="no"?>
<!-- Created with Inkscape (http://www.inkscape.org/) -->

<svg
   xmlns:dc="http://purl.org/dc/elements/1.1/"
   xmlns:cc="http://creativecommons.org/ns#"
   xmlns:rdf="http://www.w3.org/1999/02/22-rdf-syntax-ns#"
   xmlns:svg="http://www.w3.org/2000/svg"
   xmlns="http://www.w3.org/2000/svg"
   xmlns:sodipodi="http://sodipodi.sourceforge.net/DTD/sodipodi-0.dtd"
   xmlns:inkscape="http://www.inkscape.org/namespaces/inkscape"
   width="64"
   height="64"
   viewBox="0 0 64.000001 64.000001"
   id="svg5332"
   version="1.1"
   inkscape:version="0.91 r13725"
   sodipodi:docname="restart.svg">
  <defs
     id="defs5334" />
  <sodipodi:namedview
     id="base"
     pagecolor="#ffffff"
     bordercolor="#666666"
     borderopacity="1.0"
     inkscape:pageopacity="0.0"
     inkscape:pageshadow="2"
     inkscape:zoom="2.8"
     inkscape:cx="86.681625"
     inkscape:cy="35.39783"
     inkscape:document-units="px"
     inkscape:current-layer="layer1"
     showgrid="false"
     borderlayer="true"
     units="px"
     width="64px"
     inkscape:window-width="1280"
     inkscape:window-height="1000"
     inkscape:window-x="1280"
     inkscape:window-y="24"
     inkscape:window-maximized="1" />
  <metadata
     id="metadata5337">
    <rdf:RDF>
      <cc:Work
         rdf:about="">
        <dc:format>image/svg+xml</dc:format>
        <dc:type
           rdf:resource="http://purl.org/dc/dcmitype/StillImage" />
        <dc:title></dc:title>
      </cc:Work>
    </rdf:RDF>
  </metadata>
  <g
     inkscape:label="Vrstva 1"
     inkscape:groupmode="layer"
     id="layer1"
     transform="translate(0,-988.36216)">
    <g
       transform="translate(-2e-7,-4e-5)"
       id="g6466">
      <path
         sodipodi:nodetypes="scccsccscscccscc"
         inkscape:connector-curvature="0"
         id="path7511-3-8-6-2-5-2-6"
         d="m 32,989.3622 c -14.80378,0 -27.2084401,10.42959 -30.2695312,24.3262 l 12.0734662,-5.979 -4.582272,-1.1911 C 13.890279,998.83877 22.3347,993.72158 32,993.72158 c 12.433892,0 22.847298,8.46872 25.800781,19.96682 l 4.46875,0 C 59.20844,999.79179 46.80378,989.3622 32,989.3622 Z M 1.7089844,1026.9384 C 4.7334431,1040.8836 17.161678,1051.3622 32,1051.3622 c 14.838322,0 27.266557,-10.4786 30.291016,-24.4238 l -12.189761,5.2541 5.12329,1.2478 C 50.66162,1041.543 41.982195,1047.0028 32,1047.0028 c -12.468173,0 -22.9038891,-8.5178 -25.8242188,-20.0644 z"
         style="color:#000000;font-style:normal;font-variant:normal;font-weight:normal;font-stretch:normal;font-size:medium;line-height:normal;font-family:sans-serif;text-indent:0;text-align:start;text-decoration:none;text-decoration-line:none;text-decoration-style:solid;text-decoration-color:#000000;letter-spacing:normal;word-spacing:normal;text-transform:none;direction:ltr;block-progression:tb;writing-mode:lr-tb;baseline-shift:baseline;text-anchor:start;white-space:normal;clip-rule:nonzero;display:inline;overflow:visible;visibility:visible;opacity:1;isolation:auto;mix-blend-mode:normal;color-interpolation:sRGB;color-interpolation-filters:linearRGB;solid-color:#000000;solid-opacity:1;fill:#000000;fill-opacity:1;fill-rule:nonzero;stroke:none;stroke-width:4.359375;stroke-linecap:butt;stroke-linejoin:miter;stroke-miterlimit:4;stroke-dasharray:none;stroke-dashoffset:0;stroke-opacity:1;color-rendering:auto;image-rendering:auto;shape-rendering:auto;text-rendering:auto;enable-background:accumulate" />
      <path
         sodipodi:nodetypes="cccccc"
         inkscape:connector-curvature="0"
         id="rect3976-0-7-1-9-1-3-6"
         d="m 17.494806,1000.3411 20.357003,0 9.908279,10.869 0,27.2028 -30.265282,0 z"
         style="fill:none;stroke:#000000;stroke-width:2.09699988;stroke-linecap:round;stroke-linejoin:round;stroke-miterlimit:4;stroke-dasharray:none;stroke-opacity:1" />
      <path
         sodipodi:nodetypes="cc"
         inkscape:connector-curvature="0"
         id="path4295-3-1-4-4-4-8-4"
         d="m 20.242069,1028.7514 18.530239,0"
         style="fill:none;stroke:#000000;stroke-width:1.28563297;stroke-linecap:butt;stroke-linejoin:miter;stroke-miterlimit:4;stroke-dasharray:none;stroke-opacity:1" />
      <path
         sodipodi:nodetypes="cc"
         inkscape:connector-curvature="0"
         id="path4297-7-3-1-4-24-1-9"
         d="m 20.306954,1033.2383 14.152825,0"
         style="fill:none;stroke:#000000;stroke-width:1.28563297;stroke-linecap:butt;stroke-linejoin:miter;stroke-miterlimit:4;stroke-dasharray:none;stroke-opacity:1" />
      <path
         inkscape:connector-curvature="0"
         id="rect4279-6-1-5-2-93-8-5-3"
         d="m 31.225139,1003.943 c -1.342938,0.018 -2.048026,0.8475 -2.048026,0.8475 l 0,2.8491 c 2.7748,0 0.885025,-0.026 3.912611,-0.026 l 0.185761,0.046 0,-2.8003 c 0,0 -0.458272,-0.9245 -2.050346,-0.9172 z m -2.048026,10.6882 0,5.0365 -2.368463,0 0,4.5233 8.974621,0 0,-4.5233 -2.507786,0 0,-5.0365 -4.098372,0 z m 1.235317,4.1518 1.625416,0 0,4.737 -1.625416,0 0,-4.737 z"
         style="fill:none;stroke:#000000;stroke-width:1.26870441;stroke-miterlimit:4;stroke-dasharray:none;stroke-opacity:1" />
      <path
         sodipodi:nodetypes="ccccccc"
         inkscape:connector-curvature="0"
         id="rect4277-6-3-6-0-93-2-6-6"
         d="m 21.980343,1009.5161 7.046429,-1.8753 c 3.28644,0 0.918689,-0.027 4.063062,-0.027 l 7.756765,1.9036 0,5.1143 -18.866256,0 z"
         style="fill:none;fill-opacity:1;stroke:#000000;stroke-width:1.26870441;stroke-miterlimit:4;stroke-dasharray:none;stroke-opacity:1" />
    </g>
  </g>
</svg>
