<?xml version="1.0" encoding="UTF-8" standalone="no"?>
<svg
   xmlns:dc="http://purl.org/dc/elements/1.1/"
   xmlns:cc="http://creativecommons.org/ns#"
   xmlns:rdf="http://www.w3.org/1999/02/22-rdf-syntax-ns#"
   xmlns:svg="http://www.w3.org/2000/svg"
   xmlns="http://www.w3.org/2000/svg"
   version="1.1"
   id="svg5332"
   viewBox="0 0 64.000001 64.000001"
   height="64"
   width="64">
  <defs
     id="defs5334" />
  <metadata
     id="metadata5337">
    <rdf:RDF>
      <cc:Work
         rdf:about="">
        <dc:format>image/svg+xml</dc:format>
        <dc:type
           rdf:resource="http://purl.org/dc/dcmitype/StillImage" />
        <dc:title></dc:title>
      </cc:Work>
    </rdf:RDF>
  </metadata>
  <g
     transform="translate(0,-988.36216)"
     id="layer1">
    <path
       id="path7511-3-8-6-2-5-2-6"
       d="m 32,989.36216 c -14.80378,0 -27.2084403,10.42959 -30.2695314,24.32624 l 12.0734664,-5.979 -4.5822722,-1.1911 C 13.890279,998.83873 22.3347,993.72154 32,993.72154 c 12.433892,0 22.847298,8.46876 25.800781,19.96686 l 4.46875,0 C 59.20844,999.79175 46.80378,989.36216 32,989.36216 Z M 1.7089842,1026.9384 C 4.7334429,1040.8836 17.161678,1051.3622 32,1051.3622 c 14.838322,0 27.266557,-10.4786 30.291016,-24.4238 l -12.189761,5.2541 5.12329,1.2478 C 50.66162,1041.543 41.982195,1047.0028 32,1047.0028 c -12.468173,0 -22.9038893,-8.5178 -25.824219,-20.0644 z"
       style="color:#000000;font-style:normal;font-variant:normal;font-weight:normal;font-stretch:normal;font-size:medium;line-height:normal;font-family:sans-serif;text-indent:0;text-align:start;text-decoration:none;text-decoration-line:none;text-decoration-style:solid;text-decoration-color:#000000;letter-spacing:normal;word-spacing:normal;text-transform:none;direction:ltr;block-progression:tb;writing-mode:lr-tb;baseline-shift:baseline;text-anchor:start;white-space:normal;clip-rule:nonzero;display:inline;overflow:visible;visibility:visible;opacity:1;isolation:auto;mix-blend-mode:normal;color-interpolation:sRGB;color-interpolation-filters:linearRGB;solid-color:#000000;solid-opacity:1;fill:#000000;fill-opacity:1;fill-rule:nonzero;stroke:none;stroke-width:4.359375;stroke-linecap:butt;stroke-linejoin:miter;stroke-miterlimit:4;stroke-dasharray:none;stroke-dashoffset:0;stroke-opacity:1;color-rendering:auto;image-rendering:auto;shape-rendering:auto;text-rendering:auto;enable-background:accumulate" />
    <g
       transform="matrix(1.9716823,0,0,1.9716823,-178.54751,-963.02947)"
       id="g3361">
      <rect
         rx="1.8592992"
         style="fill:#000000;fill-opacity:1;stroke:none"
         id="rect9178-6"
         width="7.2173815"
         height="6.8816891"
         x="103.22659"
         y="996.75525"
         ry="1.8592992" />
      <path
         style="fill:#040404;fill-opacity:1;stroke:none"
         d="m 102.38226,1000.6745 c -1.64578,0.3942 -2.865268,1.8495 -2.865268,3.6194 l 0,6.3639 c 0,2.0735 1.666378,3.7399 3.739918,3.7399 l 7.0576,0 c 2.07355,0 3.73993,-1.6664 3.73993,-3.7399 l 0,-6.3639 c 0,-1.7358 -1.17721,-3.1621 -2.77479,-3.5891 l 0,1.2064 c 0,1.3936 -1.10978,2.5335 -2.50333,2.5335 l -3.86057,0 c -1.39355,0 -2.53349,-1.1399 -2.53349,-2.5335 z m 0.57305,4.2527 c 1.3934,0 2.5335,1.1401 2.5335,2.5335 0,1.3934 -1.1401,2.5335 -2.5335,2.5335 -1.3934,0 -2.5335,-1.1401 -2.5335,-2.5335 0,-1.3934 1.1401,-2.5335 2.5335,-2.5335 z m 7.75129,0.03 c 1.3934,0 2.5335,1.1401 2.5335,2.5335 0,1.3934 -1.1401,2.5335 -2.5335,2.5335 -1.3934,0 -2.5335,-1.1401 -2.5335,-2.5335 0,-1.3934 1.1401,-2.5335 2.5335,-2.5335 z m -7.75129,0.935 c -0.86657,0 -1.5382,0.7018 -1.5382,1.5684 0,0.8666 0.67163,1.5381 1.5382,1.5381 0.86657,0 1.56835,-0.6715 1.56835,-1.5381 0,-0.8666 -0.70178,-1.5684 -1.56835,-1.5684 z m 7.75129,0.061 c -0.86657,0 -1.56835,0.6716 -1.56835,1.5382 0,0.8666 0.70178,1.5683 1.56835,1.5683 0.86657,0 1.5382,-0.7017 1.5382,-1.5683 0,-0.8666 -0.67163,-1.5382 -1.5382,-1.5382 z"
         id="rect9178" />
    </g>
  </g>
</svg>
