<?xml version="1.0" encoding="UTF-8" standalone="no"?>
<!-- Created with Inkscape (http://www.inkscape.org/) -->

<svg xmlns:dc="http://purl.org/dc/elements/1.1/" xmlns:cc="http://creativecommons.org/ns#" xmlns:rdf="http://www.w3.org/1999/02/22-rdf-syntax-ns#" xmlns:svg="http://www.w3.org/2000/svg" xmlns="http://www.w3.org/2000/svg" version="1.1" width="64" height="64" id="svg3254">
  <defs id="defs3256" />
  <metadata id="metadata3259">
    <rdf:RDF>
      <cc:Work rdf:about="">
        <dc:format>image/svg+xml</dc:format>
        <dc:type rdf:resource="http://purl.org/dc/dcmitype/StillImage" />
        <dc:title></dc:title>
      </cc:Work>
    </rdf:RDF>
  </metadata>
  <g id="layer1">
    <g transform="matrix(1.5756397,0,0,1.6644338,54.170963,-1788.6456)" id="g3219" style="display:inline">
      <path d="m -14.746549,1077.7527 0,15.2513 4.027731,0 0,-15.2513 z" id="path3397" />
      <path d="m -28.493102,1098.125 c 1.280572,7.768 9.04186,13.1318 17.247791,11.9196 8.205389,-1.2122 13.8717377,-8.5597 12.5911658,-16.3278 -0.64028535,-3.8839 -2.8375946,-7.2486 -5.9796213,-9.3887 l -2.2664742,2.9392 c 2.3282028,1.609 4.0331007,4.0698 4.5220467,7.036 0.9662505,5.8611 -3.2519743,11.331 -9.443375,12.2456 -6.192048,0.9148 -11.969592,-3.0784 -12.935843,-8.9396 -0.483125,-2.9307 0.440618,-5.6713 2.177425,-7.881 l 4.700237,3.248 -1.746236,-10.5928 -11.189608,1.653 5.130941,3.5462 c -2.266583,2.939 -3.442915,6.6935 -2.802629,10.5777 z" id="path3408" />
    </g>
  </g>
</svg>
