<?xml version="1.0" encoding="UTF-8" standalone="no"?>
<!-- Created with Inkscape (http://www.inkscape.org/) -->

<svg xmlns:dc="http://purl.org/dc/elements/1.1/" xmlns:cc="http://creativecommons.org/ns#" xmlns:rdf="http://www.w3.org/1999/02/22-rdf-syntax-ns#" xmlns:svg="http://www.w3.org/2000/svg" xmlns="http://www.w3.org/2000/svg" version="1.2" width="64" height="64" viewBox="0 0 64 64" id="svg3254" xml:space="preserve"><metadata id="metadata10"><rdf:RDF><cc:Work rdf:about=""><dc:format>image/svg+xml</dc:format><dc:type rdf:resource="http://purl.org/dc/dcmitype/StillImage" /><dc:title></dc:title></cc:Work></rdf:RDF></metadata><defs id="defs8" />

<g id="layer1">
	
		<g transform="matrix(1.5756397,0,0,1.6644338,54.170963,-1788.6456)" id="g3219">
		<path d="m -14.747,1077.753 v 15.251 h 4.027 v -15.251 h -4.027 z" id="path3397" style="fill:#720000" />
		<path d="m -28.493,1098.125 c 1.281,7.768 9.042,13.131 17.248,11.919 8.205,-1.212 13.871,-8.56 12.59,-16.328 -0.64,-3.884 -2.837,-7.249 -5.98,-9.389 l -2.266,2.939 c 2.328,1.609 4.033,4.07 4.522,7.036 0.966,5.861 -3.252,11.331 -9.443,12.245 -6.192,0.915 -11.97,-3.079 -12.936,-8.939 -0.483,-2.931 0.441,-5.671 2.178,-7.881 l 4.7,3.248 -1.746,-10.593 -11.19,1.653 5.131,3.546 c -2.267,2.939 -3.443,6.694 -2.803,10.578 l -0.005,-0.034 z" id="path3408" style="fill:#720000" />
	</g>
</g>
</svg>