<?xml version="1.0" encoding="UTF-8" standalone="no"?>
<svg
   xmlns:dc="http://purl.org/dc/elements/1.1/"
   xmlns:cc="http://creativecommons.org/ns#"
   xmlns:rdf="http://www.w3.org/1999/02/22-rdf-syntax-ns#"
   xmlns:svg="http://www.w3.org/2000/svg"
   xmlns="http://www.w3.org/2000/svg"
   version="1.1"
   id="svg5332"
   viewBox="0 0 64.000001 64.000001"
   height="64"
   width="64">
  <defs
     id="defs5334" />
  <metadata
     id="metadata5337">
    <rdf:RDF>
      <cc:Work
         rdf:about="">
        <dc:format>image/svg+xml</dc:format>
        <dc:type
           rdf:resource="http://purl.org/dc/dcmitype/StillImage" />
        <dc:title></dc:title>
      </cc:Work>
    </rdf:RDF>
  </metadata>
  <g
     transform="translate(0,-988.36216)"
     id="layer1">
    <path
       id="path3382"
       d="m 31.103871,1022.2231 c -0.994982,-0.7345 -1.522912,-1.8248 -1.535396,-3.1708 -0.0082,-0.8789 0.782326,-2.3642 1.541643,-2.8965 0.683629,-0.4792 1.758058,-0.7766 2.574482,-0.713 0.736377,0.058 2.074248,0.7323 2.535916,1.2794 0.501094,0.5934 0.905282,1.7099 0.903757,2.4963 -0.006,3.0668 -3.544635,4.833 -6.020503,3.0049 z"
       style="fill:#000000;fill-opacity:1" />
    <path
       id="path3380"
       d="m 29.316097,1012.6301 c -0.674862,-0.8293 -0.530481,-1.9527 0.329924,-2.5668 0.385686,-0.2753 1.655027,-0.4802 2.933475,-0.4737 2.995693,0.015 6.497335,1.5723 8.599978,3.824 0.950638,1.018 1.772013,2.2001 2.110676,3.0377 0.225706,0.5582 0.223669,0.7635 -0.01335,1.3606 -0.259346,0.6532 -0.329574,0.7219 -0.987505,0.9659 -0.615071,0.2283 -0.784284,0.2237 -1.28509,-0.034 -0.452308,-0.2318 -0.69656,-0.5059 -1.129075,-1.2587 -0.929827,-1.6182 -1.711864,-2.3225 -3.704297,-3.3361 -1.542536,-0.7907 -1.812688,-0.8798 -2.810651,-0.9791 -0.606608,-0.061 -1.501855,-0.065 -1.989487,-0.012 -1.086886,0.1205 -1.64356,-0.023 -2.054598,-0.5273 z"
       style="fill:#000000;fill-opacity:1" />
    <path
       id="path3378"
       d="m 27.74395,1006.3811 c -0.325853,-0.4771 -0.275645,-1.3164 0.108382,-1.8121 0.364771,-0.4709 1.126859,-0.7306 2.667576,-0.9092 6.448172,-0.7476 12.56804,1.9553 16.346602,7.2194 1.228303,1.7111 2.094997,3.516 1.995248,4.1549 -0.179341,1.148 -1.323919,1.7251 -2.365092,1.1928 -0.380085,-0.1945 -0.593476,-0.4798 -1.102016,-1.4733 -1.511035,-2.9524 -3.404027,-4.8757 -6.216361,-6.3161 -2.982315,-1.5289 -5.406639,-1.9117 -9.010043,-1.4276 -1.410097,0.1895 -1.963404,0.046 -2.424301,-0.6288 z"
       style="fill:#000000;fill-opacity:1" />
    <path
       id="path3377"
       d="m 26.067015,1000.4894 c -0.377182,-0.4434 -0.468199,-1.14765 -0.229859,-1.77807 0.227692,-0.60223 0.245093,-0.61466 1.329571,-0.94657 2.253034,-0.68975 6.369752,-0.87475 9.323243,-0.41902 2.809085,0.43337 3.92781,0.82088 7.148899,2.47585 3.222513,1.65201 4.21659,2.35661 6.183378,4.35901 2.083937,2.1217 4.346959,5.582 5.093797,7.7889 0.325825,0.9629 0.334374,1.1126 0.09047,1.5884 -0.217511,0.4243 -0.397065,0.5726 -0.934398,0.7721 -0.592092,0.2197 -0.731187,0.2128 -1.266548,-0.061 -0.543355,-0.2786 -0.651124,-0.419 -1.116051,-1.453 -1.827851,-4.0659 -4.316809,-6.9508 -8.045544,-9.3256 -2.194335,-1.3975 -4.871502,-2.3985 -7.622016,-2.8493 -1.610709,-0.2639 -4.650632,-0.2736 -6.223563,-0.019 -2.674039,0.4318 -2.888821,0.4503 -3.210047,0.2758 -0.180977,-0.093 -0.413348,-0.2805 -0.521331,-0.4074 z"
       style="fill:#000000;fill-opacity:1" />
    <path
       id="path4196"
       d="m 16.287361,1035.29 c -0.552127,-0.093 -0.992698,-0.4693 -1.200278,-1.0242 -0.217617,-0.5816 -0.07451,-1.2133 0.377201,-1.665 0.16455,-0.1645 0.362532,-0.2931 0.569302,-0.3698 0.316666,-0.1172 0.323334,-0.1174 6.059435,-0.1174 l 5.742421,0 0.03354,0.2097 c 0.0469,0.2933 0.243449,0.5607 0.530344,0.7215 l 0.244371,0.1369 3.478273,0 3.478273,0 0.244375,-0.1369 c 0.286891,-0.1608 0.483439,-0.4282 0.53034,-0.7215 l 0.03354,-0.2097 5.74242,0 c 5.736102,0 5.742766,0 6.059439,0.1174 0.600716,0.2226 1.056489,0.869 1.056489,1.4985 0,0.5174 -0.383936,1.1734 -0.815569,1.3937 -0.110692,0.056 -0.346737,0.1296 -0.524545,0.1624 -0.379166,0.07 -31.225897,0.074 -31.639368,0.01 z"
       style="fill:#010101" />
    <path
       id="path4194"
       d="m 17.689453,1009.6286 -0.376953,0.1231 c -1.087372,0.3568 -1.808991,1.062 -2.175781,2.125 l -0.132813,0.3808 0,7.5313 0,7.5312 0.13086,0.3848 c 0.351213,1.0345 1.090215,1.7714 2.105468,2.1016 0.18618,0.06 0.413527,0.1208 0.503907,0.1328 l 0,0 c 0.09038,0.01 6.634688,0.028 14.542968,0.018 l 14.376953,-0.012 0.357422,-0.1308 c 1.033508,-0.3858 1.746704,-1.1083 2.087891,-2.1133 l 0.130859,-0.3848 0,-7.5312 0,-2.9317 -2.117187,0.7168 -0.0059,2.2989 -0.01367,7.2285 -0.15625,0.2304 c -0.100721,0.1485 -0.256407,0.2821 -0.435547,0.3711 l -0.279297,0.1387 -14.111328,0 -14.109375,0 -0.279297,-0.1387 c -0.17914,-0.089 -0.334822,-0.2226 -0.435547,-0.3711 l -0.15625,-0.2304 -0.01367,-7.2285 -0.01563,-7.2286 0.142578,-0.289 c 0.106978,-0.2187 0.205212,-0.3259 0.398438,-0.4395 l 0.255859,-0.1523 10.076172,0 c -0.301461,-0.8367 -0.473022,-1.3216 -0.761719,-2.1348 l -9.533203,0 z"
       style="fill:#010101" />
    <circle
       r="28.820312"
       id="path7511-3-8-6-2-5-2-6-2"
       style="fill:none;stroke:#000000;stroke-width:4.359375;stroke-miterlimit:4;stroke-dasharray:none;stroke-opacity:1"
       cx="32"
       cy="1020.3622" />
  </g>
</svg>
