<?xml version="1.0" encoding="UTF-8" standalone="no"?>
<svg
   xmlns:dc="http://purl.org/dc/elements/1.1/"
   xmlns:cc="http://creativecommons.org/ns#"
   xmlns:rdf="http://www.w3.org/1999/02/22-rdf-syntax-ns#"
   xmlns:svg="http://www.w3.org/2000/svg"
   xmlns="http://www.w3.org/2000/svg"
   version="1.1"
   id="svg5332"
   viewBox="0 0 64.000001 64.000001"
   height="64"
   width="64">
  <defs
     id="defs5334" />
  <metadata
     id="metadata5337">
    <rdf:RDF>
      <cc:Work
         rdf:about="">
        <dc:format>image/svg+xml</dc:format>
        <dc:type
           rdf:resource="http://purl.org/dc/dcmitype/StillImage" />
        <dc:title></dc:title>
      </cc:Work>
    </rdf:RDF>
  </metadata>
  <g
     transform="translate(0,-988.36216)"
     id="layer1">
    <path
       id="path3377"
       d="m 31.517527,1021.6653 c -0.811444,-0.599 -1.24199,-1.4882 -1.252171,-2.5859 -0.0067,-0.7168 0.638015,-1.9281 1.257265,-2.3622 0.557524,-0.3908 1.43376,-0.6334 2.099583,-0.5815 0.600542,0.047 1.691624,0.5972 2.068131,1.0434 0.40866,0.4839 0.73829,1.3945 0.737046,2.0358 -0.0049,2.5011 -2.890777,3.9415 -4.909937,2.4506 z m -1.554794,-8.5065 c -0.567303,-0.6971 -0.445933,-1.6415 0.277341,-2.1577 0.324215,-0.2314 1.391249,-0.4037 2.465939,-0.3982 2.51824,0.013 5.461792,1.3217 7.229316,3.2145 0.799126,0.8558 1.48959,1.8495 1.774277,2.5536 0.189733,0.4692 0.188021,0.6418 -0.01122,1.1437 -0.218012,0.5491 -0.277047,0.6069 -0.830117,0.812 -0.517041,0.1919 -0.659285,0.188 -1.080273,-0.029 -0.380219,-0.1949 -0.585542,-0.4253 -0.949123,-1.0581 -0.781632,-1.3603 -1.439028,-1.9524 -3.113908,-2.8044 -1.296687,-0.6647 -1.523782,-0.7396 -2.36269,-0.8231 -0.509927,-0.051 -1.26249,-0.055 -1.672403,-0.01 -0.913659,0.1013 -1.38161,-0.019 -1.727137,-0.4432 z m -1.883262,-5.434 c -0.293134,-0.4292 -0.247967,-1.1843 0.0975,-1.6302 0.328144,-0.4236 1.01371,-0.6572 2.399723,-0.8179 5.800707,-0.6725 11.306075,1.759 14.705229,6.4945 1.104969,1.5393 1.884637,3.163 1.794904,3.7377 -0.161333,1.0327 -1.190983,1.5519 -2.127611,1.073 -0.341921,-0.1749 -0.533885,-0.4316 -0.991362,-1.3253 -1.359311,-2.656 -3.062227,-4.3862 -5.592173,-5.6819 -2.682859,-1.3754 -4.863755,-1.7198 -8.105339,-1.2843 -1.268508,0.1705 -1.766257,0.041 -2.180875,-0.5656 z m -1.518341,-5.018 c -0.333758,-0.3923 -0.414297,-1.0155 -0.203396,-1.5733 0.201479,-0.5329 0.216876,-0.5439 1.176503,-0.8376 1.993652,-0.61034 5.636429,-0.77404 8.249897,-0.37078 2.485687,0.38348 3.475618,0.72638 6.325877,2.19078 2.851518,1.4618 3.731151,2.0853 5.471511,3.8572 1.844022,1.8774 3.846512,4.9393 4.50737,6.8922 0.288314,0.852 0.295879,0.9845 0.08005,1.4055 -0.19247,0.3755 -0.351353,0.5067 -0.826825,0.6832 -0.523927,0.1944 -0.647008,0.1883 -1.120735,-0.054 -0.480801,-0.2465 -0.576163,-0.3707 -0.987565,-1.2857 -1.617418,-3.5978 -3.819833,-6.1506 -7.119294,-8.252 -1.941711,-1.2366 -4.310667,-2.1223 -6.744526,-2.5212 -1.425275,-0.2336 -4.115224,-0.2421 -5.50707,-0.017 -2.366188,0.3821 -2.556243,0.3984 -2.840488,0.244 -0.160142,-0.082 -0.365761,-0.2482 -0.461312,-0.3605 z"
       style="fill:#000000;fill-opacity:1" />
    <path
       id="path4196"
       d="m 16.287361,1035.29 c -0.552127,-0.093 -0.992698,-0.4693 -1.200278,-1.0242 -0.217617,-0.5816 -0.07451,-1.2133 0.377201,-1.665 0.16455,-0.1645 0.362532,-0.2931 0.569302,-0.3698 0.316666,-0.1172 0.323334,-0.1174 6.059435,-0.1174 l 5.742421,0 0.03354,0.2097 c 0.0469,0.2933 0.243449,0.5607 0.530344,0.7215 l 0.244371,0.1369 3.478273,0 3.478273,0 0.244375,-0.1369 c 0.286891,-0.1608 0.483439,-0.4282 0.53034,-0.7215 l 0.03354,-0.2097 5.74242,0 c 5.736102,0 5.742766,0 6.059439,0.1174 0.600716,0.2226 1.056489,0.869 1.056489,1.4985 0,0.5174 -0.383936,1.1734 -0.815569,1.3937 -0.110692,0.056 -0.346737,0.1296 -0.524545,0.1624 -0.379166,0.07 -31.225897,0.074 -31.639368,0.01 z"
       style="fill:#010101" />
    <path
       id="path4194"
       d="m 17.689453,1009.6286 -0.376953,0.1231 c -1.087372,0.3568 -1.808991,1.062 -2.175781,2.125 l -0.132813,0.3808 0,7.5313 0,7.5312 0.13086,0.3848 c 0.351213,1.0345 1.090215,1.7714 2.105468,2.1016 0.18618,0.06 0.413527,0.1208 0.503907,0.1328 l 0,0 c 0.09038,0.01 6.634688,0.028 14.542968,0.018 l 14.376953,-0.012 0.357422,-0.1308 c 1.033508,-0.3858 1.746704,-1.1083 2.087891,-2.1133 l 0.130859,-0.3848 0,-7.5312 0,-2.9317 -2.117187,0.7168 -0.0059,2.2989 -0.01367,7.2285 -0.15625,0.2304 c -0.100721,0.1485 -0.256407,0.2821 -0.435547,0.3711 l -0.279297,0.1387 -14.111328,0 -14.109375,0 -0.279297,-0.1387 c -0.17914,-0.089 -0.334822,-0.2226 -0.435547,-0.3711 l -0.15625,-0.2304 -0.01367,-7.2285 -0.01563,-7.2286 0.142578,-0.289 c 0.106978,-0.2187 0.205212,-0.3259 0.398438,-0.4395 l 0.255859,-0.1523 10.076172,0 c -0.301461,-0.8367 -0.473022,-1.3216 -0.761719,-2.1348 l -9.533203,0 z"
       style="fill:#010101" />
    <circle
       r="28.820312"
       id="path7511-3-8-6-2-5-2-6-2"
       style="fill:none;stroke:#000000;stroke-width:4.359375;stroke-miterlimit:4;stroke-dasharray:none;stroke-opacity:1"
       cx="32"
       cy="1020.3622" />
  </g>
</svg>
