<?xml version="1.0" encoding="UTF-8" standalone="no"?>
<svg
   xmlns:dc="http://purl.org/dc/elements/1.1/"
   xmlns:cc="http://creativecommons.org/ns#"
   xmlns:rdf="http://www.w3.org/1999/02/22-rdf-syntax-ns#"
   xmlns:svg="http://www.w3.org/2000/svg"
   xmlns="http://www.w3.org/2000/svg"
   width="64"
   height="64"
   viewBox="0 0 64.000001 64.000001"
   id="svg5332"
   version="1.1">
  <defs
     id="defs5334" />
  <metadata
     id="metadata5337">
    <rdf:RDF>
      <cc:Work
         rdf:about="">
        <dc:format>image/svg+xml</dc:format>
        <dc:type
           rdf:resource="http://purl.org/dc/dcmitype/StillImage" />
        <dc:title></dc:title>
      </cc:Work>
    </rdf:RDF>
  </metadata>
  <path
     id="path3387"
     d="M 42.798828 14.162109 C 32.851229 14.162105 24.787105 22.226229 24.787109 32.173828 C 24.787105 42.121427 32.851229 50.185551 42.798828 50.185547 C 43.72275 50.178247 44.644742 50.099917 45.556641 49.951172 C 53.316083 49.894362 60.862923 40.817052 60.802734 32.380859 C 60.805734 32.314469 60.808347 32.248061 60.810547 32.181641 C 60.810551 22.234042 52.746427 14.169918 42.798828 14.169922 L 42.798828 14.162109 z M 41.515625 16.871094 L 44.316406 16.871094 L 44.316406 24.103516 L 41.515625 24.103516 L 41.515625 16.871094 z M 51.144531 18.185547 A 10.278627 7.6807337 76.219691 0 1 59.521484 26.503906 A 10.278627 7.6807337 76.219691 0 1 54.509766 38.316406 A 10.278627 7.6807337 76.219691 0 1 49.972656 37.654297 L 39.304688 34.398438 L 44.941406 22.880859 A 10.278627 7.6807337 76.219691 0 1 45.666016 21.402344 L 46.085938 20.542969 L 46.21875 20.613281 A 10.278627 7.6807337 76.219691 0 1 49.613281 18.349609 A 10.278627 7.6807337 76.219691 0 1 51.144531 18.185547 z M 44.427734 29.320312 L 42.863281 32.585938 L 46.037109 33.720703 A 10.278627 7.6807337 76.219691 0 1 44.603516 30.162109 A 10.278627 7.6807337 76.219691 0 1 44.427734 29.320312 z M 27.402344 30.167969 L 35.333984 30.167969 L 35.333984 32.966797 L 27.402344 32.966797 L 27.402344 30.167969 z M 41.697266 38.714844 L 44.810547 38.714844 L 44.810547 46.302734 L 41.697266 46.302734 L 41.697266 39.865234 L 41.697266 38.714844 z "
     style="fill:#060000;fill-opacity:1;stroke:none;stroke-width:2.74752069;stroke-miterlimit:4;stroke-dasharray:none;stroke-dashoffset:0;stroke-opacity:1" />
  <path
     id="path3506-4"
     d="m 13.384792,17.01835 -1.642176,5.345805 -2.7253124,8.944618 -0.1048205,-0.20964 -0.3144591,-1.187956 -6.5687027,0 0,3.49399 4.0530296,0 1.3277167,4.05303 1.6421754,5.136166 1.642176,-5.240986 2.725312,-8.734977 2.725314,8.734977 1.432536,4.681948 1.851816,-4.472308 2.061454,-5.136167 0.45422,0.978317 3.386698,0 0,-3.49399 -1.220424,0 -1.327717,-2.620494 -1.746995,-3.389172 -1.432537,3.598812 -1.642176,4.157849 -2.934952,-9.294017 z" />
  <path
     id="path7511-3-8-6-2-5-2-6"
     d="M 32 1 C 14.90499 1 1 14.90499 1 32 C 1 49.09501 14.90499 63 32 63 C 49.09501 63 63 49.09501 63 32 C 63 14.90499 49.09501 1 32 1 z M 32 5.359375 C 42.528499 5.359375 51.604627 11.435277 55.933594 20.277344 A 10.278627 7.6807337 76.219691 0 1 59.521484 26.503906 A 10.278627 7.6807337 76.219691 0 1 58.429688 35.314453 C 56.802243 48.481755 45.615547 58.640625 32 58.640625 C 17.260971 58.640625 5.359375 46.739029 5.359375 32 C 5.359375 17.260971 17.260971 5.359375 32 5.359375 z "
     style="color:#000000;font-style:normal;font-variant:normal;font-weight:normal;font-stretch:normal;font-size:medium;line-height:normal;font-family:sans-serif;text-indent:0;text-align:start;text-decoration:none;text-decoration-line:none;text-decoration-style:solid;text-decoration-color:#000000;letter-spacing:normal;word-spacing:normal;text-transform:none;direction:ltr;block-progression:tb;writing-mode:lr-tb;baseline-shift:baseline;text-anchor:start;white-space:normal;clip-rule:nonzero;display:inline;overflow:visible;visibility:visible;opacity:1;isolation:auto;mix-blend-mode:normal;color-interpolation:sRGB;color-interpolation-filters:linearRGB;solid-color:#000000;solid-opacity:1;fill:#000000;fill-opacity:1;fill-rule:nonzero;stroke:none;stroke-width:4.359375;stroke-linecap:butt;stroke-linejoin:miter;stroke-miterlimit:4;stroke-dasharray:none;stroke-dashoffset:0;stroke-opacity:1;color-rendering:auto;image-rendering:auto;shape-rendering:auto;text-rendering:auto;enable-background:accumulate" />
  <ellipse
     style="opacity:1;fill:none;fill-opacity:1;stroke:#000000;stroke-width:2.005;stroke-linecap:round;stroke-miterlimit:4;stroke-dasharray:none;stroke-dashoffset:0;stroke-opacity:1"
     id="ellipse3393"
     cx="44.019794"
     cy="39.866295"
     rx="5.3665624"
     ry="7.1817222"
     transform="matrix(0.9712162,-0.2381997,0.2381997,0.9712162,0,0)" />
</svg>
