<?xml version="1.0" encoding="UTF-8" standalone="no"?>
<svg
   xmlns:dc="http://purl.org/dc/elements/1.1/"
   xmlns:cc="http://creativecommons.org/ns#"
   xmlns:rdf="http://www.w3.org/1999/02/22-rdf-syntax-ns#"
   xmlns:svg="http://www.w3.org/2000/svg"
   xmlns="http://www.w3.org/2000/svg"
   id="svg3254"
   height="64"
   width="64"
   version="1.1">
  <defs
     id="defs3256" />
  <metadata
     id="metadata3259">
    <rdf:RDF>
      <cc:Work
         rdf:about="">
        <dc:format>image/svg+xml</dc:format>
        <dc:type
           rdf:resource="http://purl.org/dc/dcmitype/StillImage" />
        <dc:title></dc:title>
      </cc:Work>
    </rdf:RDF>
  </metadata>
  <path
     id="path3361"
     d="m 6.6852387,56.408075 0,-2.638845 9.3616333,0 9.361634,0 0,2.638845 0,2.638852 -9.361634,0 -9.3616333,0 0,-2.638852 z"
     style="fill:#000000;fill-opacity:1" />
  <path
     id="path3359"
     d="m 34.707354,53.329462 -4.962398,-4.963595 4.962398,-4.963589 4.962399,-4.96359 1.884348,1.884348 1.884348,1.884348 -1.756452,1.75982 -1.756447,1.759815 3.593877,0 c 3.906893,0 4.54727,-0.06969 5.731269,-0.623753 2.01929,-0.944942 3.318869,-3.399692 2.939637,-5.552633 C 51.782312,37.234272 50.06821,35.480689 47.789619,35.048564 47.347178,34.964654 40.123145,34.9203 26.89927,34.9203 l -20.2140313,0 0,-2.640988 0,-2.640987 21.1422163,0.03354 21.14221,0.03354 1.06811,0.356534 c 4.601585,1.536009 7.539568,5.534734 7.539568,10.261697 0,2.947286 -1.040609,5.452602 -3.134532,7.546525 -1.135085,1.135081 -2.237448,1.873897 -3.557775,2.384457 -1.775584,0.686604 -2.355578,0.750076 -6.854035,0.750076 l -4.105451,0 1.756447,1.759815 1.756452,1.75982 -1.884348,1.884346 -1.884348,1.884348 -4.962399,-4.963588 z"
     style="fill:#000000;fill-opacity:1" />
  <path
     id="path3355"
     d="m 6.6852387,44.350575 0,-2.638852 9.3616333,0 9.361634,0 0,2.638852 0,2.638847 -9.361634,0 -9.3616333,0 0,-2.638847 z"
     style="fill:#000000;fill-opacity:1" />
  <path
     id="path3353"
     d="m 6.6852387,20.02057 0,-2.638846 25.4460523,0 25.446052,0 0,2.638846 0,2.638853 -25.446052,0 -25.4460523,0 0,-2.638853 z"
     style="fill:#000000;fill-opacity:1" />
  <path
     id="path3347"
     d="m 6.6852387,8.1548255 0,-2.638852 25.4460523,0 25.446052,0 0,2.638852 0,2.6388475 -25.446052,0 -25.4460523,0 0,-2.6388475 z"
     style="fill:#000000;fill-opacity:1" />
</svg>
