<?xml version="1.0" encoding="UTF-8" standalone="no"?>
<!-- Created with Inkscape (http://www.inkscape.org/) -->

<svg
   xmlns:dc="http://purl.org/dc/elements/1.1/"
   xmlns:cc="http://creativecommons.org/ns#"
   xmlns:rdf="http://www.w3.org/1999/02/22-rdf-syntax-ns#"
   xmlns:svg="http://www.w3.org/2000/svg"
   xmlns="http://www.w3.org/2000/svg"
   xmlns:sodipodi="http://sodipodi.sourceforge.net/DTD/sodipodi-0.dtd"
   xmlns:inkscape="http://www.inkscape.org/namespaces/inkscape"
   version="1.1"
   width="64"
   height="64"
   id="svg3254"
   inkscape:version="0.91 r13725"
   sodipodi:docname="word_wrap-active.svg">
  <sodipodi:namedview
     pagecolor="#ffffff"
     bordercolor="#666666"
     borderopacity="1"
     objecttolerance="10"
     gridtolerance="10"
     guidetolerance="10"
     inkscape:pageopacity="0"
     inkscape:pageshadow="2"
     inkscape:window-width="1280"
     inkscape:window-height="1000"
     id="namedview8"
     showgrid="false"
     inkscape:zoom="3.6875"
     inkscape:cx="55.878768"
     inkscape:cy="27.766927"
     inkscape:window-x="1280"
     inkscape:window-y="24"
     inkscape:window-maximized="1"
     inkscape:current-layer="svg3254" />
  <defs
     id="defs3256" />
  <metadata
     id="metadata3259">
    <rdf:RDF>
      <cc:Work
         rdf:about="">
        <dc:format>image/svg+xml</dc:format>
        <dc:type
           rdf:resource="http://purl.org/dc/dcmitype/StillImage" />
        <dc:title></dc:title>
      </cc:Work>
    </rdf:RDF>
  </metadata>
  <g
     id="layer1"
     transform="translate(87.322034,-0.81355932)">
    <g
       transform="matrix(1.2799322,0,0,1.3520619,50.823596,-1446.5167)"
       id="g3219"
       style="display:inline">
      <path
         d="m -31.495574,1077.0304 0,4.1237 34.8489745,0 0,-4.1237 z m 0,8.2474 0,4.1237 21.7806103,0 0,-4.1237 z m 0,12.3711 0,4.1237 34.8489745,0 0,-4.1237 z m 0,8.2474 0,4.1237 26.1367347,0 0,-4.1237 z"
         id="path3386"
         inkscape:connector-curvature="0" />
    </g>
  </g>
  <path
     style="fill:#000000;fill-opacity:1"
     d="m 6.6852387,56.408075 0,-2.638845 9.3616333,0 9.361634,0 0,2.638845 0,2.638852 -9.361634,0 -9.3616333,0 0,-2.638852 z"
     id="path3361"
     inkscape:connector-curvature="0" />
  <path
     style="fill:#000000;fill-opacity:1"
     d="m 34.707354,53.329462 -4.962398,-4.963595 4.962398,-4.963589 4.962399,-4.96359 1.884348,1.884348 1.884348,1.884348 -1.756452,1.75982 -1.756447,1.759815 3.593877,0 c 3.906893,0 4.54727,-0.06969 5.731269,-0.623753 2.01929,-0.944942 3.318869,-3.399692 2.939637,-5.552633 C 51.782312,37.234272 50.06821,35.480689 47.789619,35.048564 47.347178,34.964654 40.123145,34.9203 26.89927,34.9203 l -20.2140313,0 0,-2.640988 0,-2.640987 21.1422163,0.03354 21.14221,0.03354 1.06811,0.356534 c 4.601585,1.536009 7.539568,5.534734 7.539568,10.261697 0,2.947286 -1.040609,5.452602 -3.134532,7.546525 -1.135085,1.135081 -2.237448,1.873897 -3.557775,2.384457 -1.775584,0.686604 -2.355578,0.750076 -6.854035,0.750076 l -4.105451,0 1.756447,1.759815 1.756452,1.75982 -1.884348,1.884346 -1.884348,1.884348 -4.962399,-4.963588 z"
     id="path3359"
     inkscape:connector-curvature="0" />
  <path
     style="fill:#000000;fill-opacity:1"
     d="m 6.6852387,44.350575 0,-2.638852 9.3616333,0 9.361634,0 0,2.638852 0,2.638847 -9.361634,0 -9.3616333,0 0,-2.638847 z"
     id="path3355"
     inkscape:connector-curvature="0" />
  <path
     style="fill:#000000;fill-opacity:1"
     d="m 6.6852387,20.02057 0,-2.638846 25.4460523,0 25.446052,0 0,2.638846 0,2.638853 -25.446052,0 -25.4460523,0 0,-2.638853 z"
     id="path3353"
     inkscape:connector-curvature="0" />
  <path
     style="fill:#000000;fill-opacity:1"
     d="m 6.6852387,8.1548255 0,-2.638852 25.4460523,0 25.446052,0 0,2.638852 0,2.6388475 -25.446052,0 -25.4460523,0 0,-2.6388475 z"
     id="path3347"
     inkscape:connector-curvature="0" />
</svg>
