#define s9xsplash_width 128
#define s9xsplash_height 64
static unsigned char s9xsplash_bits[] = {
 0x00,0x00,0x00,0x00,0x00,0x00,0x00,0x00,0x00,0x00,0x00,0x00,
 0x00,0x00,0x00,0x00,0x00,0x00,0x00,0x00,0x00,0x00,0x00,0x00,
 0x00,0x00,0x00,0x00,0x00,0x00,0x00,0x00,0x00,0x00,0xff,0xff,
 0x1f,0x00,0x00,0x00,0x00,0x00,0x00,0x00,0x00,0x00,0x00,0x00,
 0x00,0x80,0x00,0x00,0x20,0x00,0x00,0x00,0x00,0x00,0x00,0x00,
 0x00,0x00,0x00,0x00,0x00,0x40,0x00,0x00,0x40,0x00,0x00,0x00,
 0x00,0x00,0x00,0x00,0x00,0x00,0x00,0x00,0x00,0x40,0x00,0x00,
 0x40,0x00,0x00,0x00,0x00,0x00,0x00,0x00,0x00,0x00,0x00,0x00,
 0x00,0x40,0xf8,0xff,0x47,0x00,0x00,0x00,0x00,0x00,0x00,0x00,
 0x00,0x00,0x00,0x00,0x00,0x40,0x04,0x00,0x24,0x00,0x00,0x00,
 0x00,0x00,0x00,0x00,0x00,0x00,0x00,0x00,0x00,0x40,0x04,0x00,
 0x18,0xfc,0xf3,0x27,0xe0,0xcf,0xc0,0xfc,0xfd,0xf3,0x67,0x30,
 0x00,0x40,0x04,0x00,0x00,0x20,0x10,0x20,0x20,0x40,0xa1,0x04,
 0x20,0x10,0xc8,0x18,0x00,0x40,0x04,0x00,0x00,0x20,0x10,0x20,
 0x20,0x40,0xb3,0x04,0x20,0x10,0x88,0x0d,0x00,0x40,0x04,0xfc,
 0x3f,0x20,0xf0,0x21,0xe0,0x43,0x92,0x7c,0x20,0xf0,0x0f,0x07,
 0x00,0x40,0x04,0x02,0x40,0x20,0x10,0x20,0x20,0x40,0x8c,0x04,
 0x20,0x10,0x02,0x02,0x00,0x40,0x04,0x02,0x40,0x20,0x10,0x20,
 0x20,0x40,0x80,0x04,0x20,0x10,0x04,0x02,0x00,0x00,0x00,0xfc,
 0x43,0x20,0xf0,0xef,0xef,0x5f,0x80,0xfc,0x23,0x10,0x08,0x02,
 0x80,0xff,0x7f,0x00,0x44,0x00,0x00,0x00,0x00,0x00,0x00,0x00,
 0x00,0x00,0x00,0x00,0xf0,0xff,0xff,0x03,0x44,0x00,0x00,0x00,
 0x00,0x00,0x00,0x00,0x00,0x00,0x00,0x00,0xf8,0xff,0xff,0x07,
 0x44,0x00,0x00,0x00,0x00,0x00,0x00,0x00,0x00,0x00,0x00,0x00,
 0xf8,0xff,0xff,0x07,0x44,0x00,0x00,0x00,0x00,0x00,0x00,0x00,
 0x00,0x00,0x00,0x00,0xfc,0x00,0xc0,0x0f,0x44,0x00,0x00,0x00,
 0x00,0x00,0x00,0x00,0x00,0x00,0x00,0x00,0x7c,0x40,0xd8,0xef,
 0x43,0x00,0x00,0x00,0x00,0xe0,0xc7,0x9f,0x3f,0xe2,0xcf,0x0f,
 0x7c,0x40,0x00,0x00,0x40,0x3e,0x00,0x00,0x00,0x10,0x40,0x80,
 0x40,0x22,0x20,0x00,0x7c,0x80,0xc0,0x0f,0x20,0x1f,0x00,0x00,
 0x00,0x30,0x40,0x80,0x40,0x22,0x60,0x00,0x7c,0x00,0x9f,0x1f,
 0x90,0x0f,0x00,0x00,0x00,0xe0,0xc7,0x87,0x7f,0xe2,0xc3,0x0f,
 0xfc,0x00,0x00,0x3f,0xcf,0x07,0x00,0x00,0x00,0x00,0x48,0x80,
 0x10,0x22,0x00,0x10,0xf8,0xff,0x7f,0x7e,0xe0,0x03,0x00,0x00,
 0x00,0x30,0x48,0x80,0x20,0x22,0x60,0x10,0xf8,0xff,0xff,0xfc,
 0xf0,0x01,0x00,0x00,0x00,0xe0,0xc7,0xbf,0x40,0xe2,0xdf,0x0f,
 0xe0,0xff,0xff,0xf9,0xf9,0x00,0x00,0x00,0x00,0x00,0x00,0x00,
 0x00,0x00,0x00,0x00,0x00,0x7e,0x80,0xf3,0x7f,0x00,0x00,0x00,
 0x00,0x00,0x00,0x00,0x00,0x00,0x00,0x00,0x00,0x00,0xc0,0xe7,
 0x3f,0x00,0x00,0x00,0x00,0x00,0x00,0x00,0x00,0x00,0x00,0x00,
 0x00,0x00,0xe0,0xc3,0x1f,0x00,0x00,0x00,0x00,0x00,0x00,0x00,
 0x00,0x00,0x00,0x00,0x00,0x00,0xf0,0x81,0x1f,0x00,0x00,0x00,
 0x00,0x00,0x00,0x00,0x00,0x00,0x00,0x00,0x00,0x00,0xfc,0x80,
 0x3f,0x00,0x00,0x00,0x00,0x80,0x0f,0x00,0x00,0x00,0x00,0x00,
 0x00,0xe0,0x7f,0xc0,0x7f,0x00,0x00,0x7e,0x86,0x41,0x10,0x3f,
 0x82,0x02,0x65,0x08,0xc0,0xff,0x1f,0xe0,0xff,0x00,0x00,0x82,
 0x4c,0x20,0x00,0x41,0x82,0x84,0xa4,0x08,0x80,0xff,0x07,0xf0,
 0xf9,0x01,0x00,0xfe,0x28,0x20,0x3e,0x41,0x82,0x8c,0xa4,0x09,
 0x00,0xff,0x00,0xf8,0xf0,0x03,0x00,0x82,0x10,0x20,0x30,0x3f,
 0x82,0x48,0x24,0x0b,0x00,0x00,0x00,0x7c,0xe0,0x07,0x00,0x82,
 0x10,0x40,0x10,0x21,0x82,0x70,0x24,0x0a,0x00,0x00,0x00,0x3e,
 0xc0,0x0f,0x00,0xfe,0x10,0x80,0x0f,0x41,0x7c,0x30,0x24,0x0c,
 0x00,0x00,0x00,0x1f,0x80,0x1f,0x00,0x00,0x00,0x00,0x00,0x00,
 0x00,0x00,0x00,0x00,0x00,0x00,0x80,0x1f,0x00,0x3f,0x00,0x00,
 0x00,0x00,0x00,0x00,0x00,0x00,0x00,0x00,0x00,0x00,0xc0,0x0f,
 0x00,0x7e,0x00,0x00,0x00,0x00,0x00,0x00,0x00,0x00,0x00,0x00,
 0x00,0x00,0xe0,0x07,0x00,0xfc,0x00,0x00,0x00,0x00,0x00,0x00,
 0x00,0x00,0x00,0x00,0x00,0x00,0xe0,0x03,0x00,0xf8,0x00,0x00,
 0x00,0x00,0x00,0x00,0x00,0x00,0x00,0x00,0x38,0x00,0x00,0x00,
 0x0e,0x00,0x00,0x00,0x00,0x00,0x00,0x00,0x00,0x00,0x00,0x00,
 0x44,0x00,0x00,0x00,0x01,0x00,0x00,0x00,0x00,0x00,0x00,0x00,
 0x00,0x00,0x00,0x00,0x44,0x0a,0xa3,0x00,0x01,0x23,0x69,0x1c,
 0x03,0x00,0x00,0x00,0x00,0x00,0x00,0x00,0x44,0x96,0x64,0x01,
 0x86,0x24,0x59,0x82,0x04,0x00,0x00,0x00,0x00,0x00,0x00,0x00,
 0x44,0x92,0x27,0x01,0x88,0x24,0x09,0x82,0x07,0x00,0x00,0x00,
 0x00,0x00,0x00,0x00,0x44,0x92,0x20,0x01,0x90,0x24,0x09,0x82,
 0x00,0x00,0x00,0x00,0x00,0x00,0x00,0x00,0x44,0x96,0x20,0x01,
 0x90,0xa4,0x09,0x82,0x00,0x00,0x00,0x00,0x00,0x00,0x00,0x00,
 0x38,0x0a,0x27,0x01,0x0f,0x43,0x09,0x1c,0x47,0x12,0x00,0x00,
 0x00,0x00,0x00,0x00,0x00,0x02,0x00,0x00,0x00,0x00,0x00,0x00,
 0x00,0x00,0x00,0x00,0x00,0x00,0x00,0x00,0x00,0x02,0x00,0x00,
 0x00,0x00,0x00,0x00,0x00,0x00,0x00,0x00,0x00,0x00,0x00,0x00,
 0x00,0x00,0x1e,0x00,0x00,0x00,0x00,0x01,0x40,0x04,0x00,0x00,
 0x88,0x00,0x00,0x01,0x00,0x00,0x22,0x00,0x00,0x00,0x00,0x00,
 0x40,0x04,0x00,0x00,0x88,0x00,0x00,0x01,0x00,0x00,0x22,0x26,
 0x64,0x34,0xc0,0x29,0x80,0xc2,0x48,0x0d,0x88,0x1c,0x45,0x71,
 0x00,0x00,0x22,0xa9,0x95,0x2c,0x00,0x59,0x80,0x22,0x49,0x0b,
 0xf8,0x20,0xab,0x09,0x00,0x00,0x1e,0xa9,0xf5,0x04,0x00,0x49,
 0x00,0x21,0x49,0x01,0x88,0x38,0x29,0x11,0x00,0x00,0x02,0xc9,
 0x13,0x04,0x00,0x49,0x00,0x21,0x49,0x01,0x88,0x24,0x29,0x21,
 0x00,0x00,0x02,0x49,0x12,0x04,0x00,0x49,0x00,0x21,0x69,0x01,
 0x88,0x34,0xa9,0x41,0x80,0x24,0x02,0x46,0xe2,0x04,0x00,0x49,
 0x00,0xc1,0x50,0x01,0x88,0x48,0x49,0x39,0x00,0x00,0x00,0x00,
 0x00,0x00,0x00,0x00,0x00,0x00,0x00,0x00,0x00,0x00,0x00,0x00,
 0x00,0x00,0x00,0x00,0x00,0x00,0x00,0x00,0x00,0x00,
 0x00,0x00,0x00,0x00,0x00,0x00};
