#define font_it_10x14_width 20
#define font_it_10x14_height 16
static unsigned char font_it_10x14_bits[] = {
   0x00, 0x00, 0x00, 0x18, 0x60, 0x00, 0x30, 0xc0, 0x00, 0x60, 0x80, 0x01,
   0x00, 0x00, 0x00, 0xfc, 0x0c, 0x0c, 0xfc, 0x0d, 0x0c, 0x80, 0x0f, 0x0c,
   0x00, 0x0f, 0x0c, 0xfc, 0x0f, 0x0c, 0xfe, 0x0f, 0x0c, 0x07, 0x0f, 0x0c,
   0x07, 0x1f, 0x0e, 0xfe, 0xfb, 0x0f, 0xfc, 0xf3, 0x0d, 0x00, 0x00, 0x00 };
