#define font_se_05x07_width 30
#define font_se_05x07_height 8
static unsigned char font_se_05x07_bits[] = {
   0x00, 0x00, 0xa3, 0x14, 0x44, 0x29, 0xe7, 0x1c, 0xce, 0xb9, 0x18, 0x23,
   0x10, 0xc6, 0x18, 0x23, 0xde, 0xc7, 0xff, 0x23, 0x31, 0xc6, 0x18, 0x23,
   0xde, 0xbb, 0x18, 0x1d, 0x00, 0x00, 0x00, 0x00 };
