#define font_es_10x14_width 20
#define font_es_10x14_height 16
static unsigned char font_es_10x14_bits[] = {
   0x00, 0x00, 0x00, 0x8c, 0x61, 0x0c, 0xd6, 0xb0, 0x06, 0x63, 0x18, 0x03,
   0x00, 0x00, 0x00, 0x03, 0xcf, 0x03, 0x07, 0xef, 0x07, 0x0f, 0x7f, 0x0e,
   0x1f, 0x3f, 0x0c, 0x3b, 0x0f, 0x0c, 0x73, 0x0f, 0x0c, 0xe3, 0x0f, 0x0c,
   0xc3, 0x0f, 0x0c, 0x83, 0x0f, 0x0c, 0x03, 0x0f, 0x0c, 0x00, 0x00, 0x00 };
