#define font_es_04x06_width 10
#define font_es_04x06_height 7
static unsigned char font_es_04x06_bits[] = {
   0x4a, 0x01, 0xa5, 0x00, 0x09, 0x00, 0xab, 0x01, 0x6d, 0x01, 0x29, 0x01,
   0x00, 0x00 };
