#define font_se_04x06_width 30
#define font_se_04x06_height 7
static unsigned char font_se_04x06_bits[] = {
   0x46, 0x29, 0x93, 0x12, 0x00, 0x00, 0x63, 0x0c, 0xce, 0x99, 0x94, 0x12,
   0x29, 0xa5, 0xf7, 0x12, 0xad, 0xa5, 0x94, 0x12, 0x4a, 0x99, 0x94, 0x0c,
   0x00, 0x00, 0x00, 0x00 };
