#define sticks_4x1_width 18
#define sticks_4x1_height 32
static unsigned char sticks_4x1_bits[] = {
   0x00, 0x00, 0x00, 0x00, 0x20, 0x00, 0x00, 0x88, 0x00, 0x44, 0x00, 0x00,
   0xfe, 0x24, 0x01, 0x44, 0x00, 0x00, 0x00, 0x88, 0x00, 0x00, 0x20, 0x00,
   0x00, 0x00, 0x00, 0x20, 0x20, 0x00, 0x70, 0x88, 0x00, 0x20, 0x00, 0x00,
   0x20, 0x24, 0x01, 0x20, 0x00, 0x00, 0x70, 0x88, 0x00, 0x20, 0x20, 0x00,
   0x00, 0x00, 0x00, 0x10, 0x10, 0x00, 0x44, 0x38, 0x00, 0x00, 0x10, 0x00,
   0x92, 0x10, 0x00, 0x00, 0x10, 0x00, 0x44, 0x38, 0x00, 0x10, 0x10, 0x00,
   0x00, 0x00, 0x00, 0x10, 0x00, 0x00, 0x44, 0x00, 0x00, 0x00, 0x88, 0x00,
   0x92, 0xfc, 0x01, 0x00, 0x88, 0x00, 0x44, 0x00, 0x00, 0x10, 0x00, 0x00 };
