<?xml version="1.0" encoding="UTF-8" standalone="no"?>
<!-- Created with Inkscape (http://www.inkscape.org/) -->
<svg xmlns:rdf="http://www.w3.org/1999/02/22-rdf-syntax-ns#" xmlns="http://www.w3.org/2000/svg" height="673.23" width="1345.7" version="1.1" xmlns:cc="http://creativecommons.org/ns#" xmlns:dc="http://purl.org/dc/elements/1.1/">
 <metadata>
  <rdf:RDF>
   <cc:Work rdf:about="">
    <dc:format>image/svg+xml</dc:format>
    <dc:type rdf:resource="http://purl.org/dc/dcmitype/StillImage"/>
    <dc:title/>
   </cc:Work>
  </rdf:RDF>
 </metadata>
 <g transform="translate(1429.9602,109.96665)">
  <g transform="matrix(0.03543311,0,0,0.03543311,-1429.9603,-109.96665)"></g>
  <g transform="matrix(0.03543311,0,0,0.03543311,-1429.9602,-109.96665)" class="com.sun.star.drawing.CustomShape">
   <path d="M9500,19000,0,19000,0,0h19000v19000h-9500z" fill="#000"/>
   <path d="M9500,19000,0,19000,0,0h19000v19000h-9500z" fill="none"/>
  </g>
  <g transform="matrix(0.03543311,0,0,0.03543311,-1429.9602,-23.966588)" class="com.sun.star.drawing.PolyPolygonShape">
   <path d="m1500,4800,6300,0,0,2000-2000,0,0,8000-2300,0,0-8000-2000,0,0-800,0-1200z" fill="#FFF"/>
   <path d="m1500,4800,6300,0,0,2000-2000,0,0,8000-2300,0,0-8000-2000,0,0-800,0-1200z" fill="#FFF" stroke="#FFF"/>
   <text fill="#ffffff" class="TextShape">
    <tspan font-weight="400" font-size="635px" class="TextParagraph" font-family="&apos;Liberation Sans, sans-serif&apos;" fill="#ffffff">
     <tspan class="TextPosition" y="10021" x="3228" fill="#ffffff">
      <tspan fill="#ffffff"/>
     </tspan>
    </tspan>
   </text>
  </g>
  <g transform="matrix(0.03543311,0,0,0.03543311,-1429.9602,-23.966588)" class="com.sun.star.drawing.PolyPolygonShape" fill="#009100">
   <g fill="#009100">
    <path d="m17400,4800-2600,0-1800,3100-1900-3100-2600,0,3000,5000-3100,5000,2500,0,2100-3300,2000,3300,2600,0-3200-5000,3000-5000z"/>
    <path d="m17400,4800-2600,0-1800,3100-1900-3100-2600,0,3000,5000-3100,5000,2500,0,2100-3300,2000,3300,2600,0-3200-5000,3000-5000z" stroke="#363"/>
   </g>
  </g>
  <g transform="matrix(0.03543311,0,0,0.03543311,-1430.4607,-110.46714)">
   <g transform="translate(-155.20944,2159.0131)" class="com.sun.star.drawing.TextShape">
    <g line-height="125%">
     <path fill="#FFF" d="m3549,442.74c-291.04,0.003-516.77,107.49-677.17,322.46-160.4,214.98-240.61,517.59-240.61,907.85,0,388.61,80.2,690.4,240.61,905.37,160.4,214.97,386.12,322.46,677.17,322.46,292.69,0.0006,519.24-107.49,679.65-322.46,160.4-214.97,240.6-516.76,240.61-905.37,0-390.26-80.205-692.88-240.61-907.85-160.4-214.92-386.9-322.41-679.6-322.41m0-692.05c595.31,0.004,1061.6,170.33,1399,510.98,337.34,340.65,506.01,811.12,506.02,1411.4,0,598.62-168.68,1068.3-506.02,1408.9-337.35,340.65-803.67,510.98-1399,510.98-593.66-0.0001-1060-170.33-1399-510.98-337.34-340.65-506.02-810.29-506.02-1408.9-0.0002-600.27,168.67-1070.7,506.02-1411.4,339-340.65,805.32-510.97,1399-510.98"/>
    </g>
   </g>
   <g transform="translate(-493.87614,2159.0131)" class="com.sun.star.drawing.TextShape">
    <g line-height="125%">
     <path fill="#FFF" d="m6748.3-182.34,1585,0c471.29,0.004,832.61,105.01,1084,315.02,253,208.36,379.51,506.02,379.51,892.97,0,388.61-126.51,687.92-379.51,897.93-251.36,208.36-612.68,312.54-1084,312.54h-630.04v1284.9h-954.98v-3703.3m954.98,692.05,0,1034.4,528.34,0c185.21,0,328.25-44.646,429.12-133.95,100.87-90.948,151.31-219.11,151.31-384.47s-50.439-292.69-151.31-381.99c-100.87-89.294-243.91-133.94-429.12-133.95h-528.34"/>
    </g>
   </g>
   <g transform="translate(-832.54284,2159.0131)" class="com.sun.star.drawing.TextShape">
    <g line-height="125%">
     <path fill="#FFF" d="m11162-117.34,2577.2,0,0,721.82-1622.2,0,0,689.57,1525.5,0,0,721.82-1525.5,0,0,848.32,1676.8,0,0,721.82-2631.8,0,0-3703.3"/>
    </g>
   </g>
   <g transform="translate(-1227.6538,2159.0131)" class="com.sun.star.drawing.TextShape">
    <g line-height="125%">
     <path fill="#FFF" d="m15416-117.34,1066.6,0,1346.9,2540,0-2540,905.37,0,0,3703.3-1066.6,0-1346.9-2540,0,2540-905.37,0,0-3703.3"/>
    </g>
   </g>
  </g>
  <g transform="matrix(0.03543311,0,0,0.03543311,-757.52254,-109.96665)" class="com.sun.star.drawing.CustomShape" fill="#009100">
   <path d="M9500,19000,0,19000,0,0h19000v19000h-9500z"/>
   <path d="M9500,19000,0,19000,0,0h19000v19000h-9500z"/>
  </g>
  <g style="writing-mode:lr-tb;letter-spacing:0px;text-anchor:start;word-spacing:0px;text-align:start;" font-weight="bold" font-size="600px" font-stretch="normal" font-variant="normal" font-style="normal" font-family="DejaVu Sans" line-height="125%" fill="#FFF">
   <path fill="#FFF" d="m-297.97,167.03c-0.00025,19.667-4.3336,37.5-13,53.5-8.3336,16-19,29.5-32,40.5-13,10.667-26.334,20.667-40,30-13.667,9.0001-26.833,19-39.5,30-12.667,10.667-21.667,21.667-27,33h150v62.5h-241c1.6666-32.667,8.1666-58.5,19.5-77.5,11.667-19.333,32.5-39.5,62.5-60.5,39-27.333,63.833-47.5,74.5-60.5,10.666-13.333,16-29.833,16-49.5-0.00018-17.666-4.5002-31.5-13.5-41.5-8.6668-10.333-20.833-15.5-36.5-15.5-16,0.00031-28.5,5.5003-37.5,16.5-8.6668,11-13,26.334-13,46v11.5h-67c-0.33335-3.6664-0.50002-7.8331-0.5-12.5-0.00002-37.333,10.167-66.333,30.5-87,20.667-21,49.333-31.5,86-31.5,37.333,0.000362,66.833,10.167,88.5,30.5,22,20.334,33,47.667,33,82"/>
  </g>
 </g>
</svg>
