<?xml version="1.0" encoding="UTF-8" standalone="no"?>
<svg
   xmlns:ooo="http://xml.openoffice.org/svg/export"
   xmlns:osb="http://www.openswatchbook.org/uri/2009/osb"
   xmlns:dc="http://purl.org/dc/elements/1.1/"
   xmlns:cc="http://creativecommons.org/ns#"
   xmlns:rdf="http://www.w3.org/1999/02/22-rdf-syntax-ns#"
   xmlns:svg="http://www.w3.org/2000/svg"
   xmlns="http://www.w3.org/2000/svg"
   xmlns:xlink="http://www.w3.org/1999/xlink"
   xmlns:sodipodi="http://sodipodi.sourceforge.net/DTD/sodipodi-0.dtd"
   xmlns:inkscape="http://www.inkscape.org/namespaces/inkscape"
   version="1.2"
   width="190mm"
   height="190mm"
   viewBox="0 0 19000 19000"
   preserveAspectRatio="xMidYMid"
   fill-rule="evenodd"
   clip-path="url(#presentation_clip_path)"
   stroke-width="28.222"
   stroke-linejoin="round"
   xml:space="preserve"
   id="svg3347"
   inkscape:version="0.48.4 r9939"
   sodipodi:docname="opentx_logo.svg"><metadata
     id="metadata3491"><rdf:RDF><cc:Work
         rdf:about=""><dc:format>image/svg+xml</dc:format><dc:type
           rdf:resource="http://purl.org/dc/dcmitype/StillImage" /><dc:title /></cc:Work></rdf:RDF></metadata><sodipodi:namedview
     pagecolor="#ffffff"
     bordercolor="#666666"
     borderopacity="1"
     objecttolerance="10"
     gridtolerance="10"
     guidetolerance="10"
     inkscape:pageopacity="0"
     inkscape:pageshadow="2"
     inkscape:window-width="1280"
     inkscape:window-height="775"
     id="namedview3489"
     showgrid="false"
     inkscape:zoom="0.20481287"
     inkscape:cx="-1144.0445"
     inkscape:cy="70.041471"
     inkscape:window-x="0"
     inkscape:window-y="0"
     inkscape:window-maximized="1"
     inkscape:current-layer="g3399" /><defs
     class="ClipPathGroup"
     id="defs3349"><linearGradient
       id="linearGradient3844"
       osb:paint="solid"><stop
         style="stop-color:#000000;stop-opacity:1;"
         offset="0"
         id="stop3846" /></linearGradient><linearGradient
       id="linearGradient3838"
       osb:paint="solid"><stop
         style="stop-color:#000000;stop-opacity:1;"
         offset="0"
         id="stop3840" /></linearGradient><linearGradient
       id="linearGradient3826"
       osb:paint="solid"><stop
         style="stop-color:#ffffff;stop-opacity:1;"
         offset="0"
         id="stop3828" /></linearGradient><linearGradient
       id="linearGradient3820"
       osb:paint="solid"><stop
         style="stop-color:#ffffff;stop-opacity:1;"
         offset="0"
         id="stop3822" /></linearGradient><linearGradient
       id="linearGradient3814"
       osb:paint="solid"><stop
         style="stop-color:#009000;stop-opacity:1;"
         offset="0"
         id="stop3816" /></linearGradient><clipPath
       id="presentation_clip_path"
       clipPathUnits="userSpaceOnUse"><rect
         x="0"
         y="0"
         width="19000"
         height="19000"
         id="rect3352" /></clipPath><linearGradient
       inkscape:collect="always"
       xlink:href="#linearGradient3814"
       id="linearGradient3818"
       x1="8385.889"
       y1="9800"
       x2="17614.111"
       y2="9800"
       gradientUnits="userSpaceOnUse" /><linearGradient
       inkscape:collect="always"
       xlink:href="#linearGradient3820"
       id="linearGradient3824"
       x1="1485.889"
       y1="9800"
       x2="7814.111"
       y2="9800"
       gradientUnits="userSpaceOnUse" /><linearGradient
       inkscape:collect="always"
       xlink:href="#linearGradient3826"
       id="linearGradient3830"
       x1="15416.328"
       y1="1734.3301"
       x2="18735.195"
       y2="1734.3301"
       gradientUnits="userSpaceOnUse" /><linearGradient
       inkscape:collect="always"
       xlink:href="#linearGradient3826"
       id="linearGradient3832"
       x1="11162.328"
       y1="1734.3301"
       x2="13794.105"
       y2="1734.3301"
       gradientUnits="userSpaceOnUse" /><linearGradient
       inkscape:collect="always"
       xlink:href="#linearGradient3826"
       id="linearGradient3834"
       x1="6748.3281"
       y1="1669.3301"
       x2="9796.8242"
       y2="1669.3301"
       gradientUnits="userSpaceOnUse" /><linearGradient
       inkscape:collect="always"
       xlink:href="#linearGradient3826"
       id="linearGradient3836"
       x1="1644.0078"
       y1="1671.8105"
       x2="5454.0078"
       y2="1671.8105"
       gradientUnits="userSpaceOnUse" /><linearGradient
       inkscape:collect="always"
       xlink:href="#linearGradient3838"
       id="linearGradient3842"
       x1="-14.111"
       y1="9500"
       x2="19014.111"
       y2="9500"
       gradientUnits="userSpaceOnUse" /><linearGradient
       inkscape:collect="always"
       xlink:href="#linearGradient3844"
       id="linearGradient3848"
       x1="-14.111"
       y1="9500"
       x2="19014.111"
       y2="9500"
       gradientUnits="userSpaceOnUse" /></defs><defs
     class="TextShapeIndex"
     id="defs3354"><g
       ooo:slide="id1"
       ooo:id-list="id3 id4 id5 id6 id7 id8 id9 id10"
       id="g3356" /></defs><defs
     class="EmbeddedBulletChars"
     id="defs3358"><g
       id="bullet-char-template(57356)"
       transform="scale(0.00048828125,-0.00048828125)"><path
         d="M 580,1141 L 1163,571 580,0 -4,571 580,1141 Z"
         id="path3361" /></g><g
       id="bullet-char-template(57354)"
       transform="scale(0.00048828125,-0.00048828125)"><path
         d="M 8,1128 L 1137,1128 1137,0 8,0 8,1128 Z"
         id="path3364" /></g><g
       id="bullet-char-template(10146)"
       transform="scale(0.00048828125,-0.00048828125)"><path
         d="M 174,0 L 602,739 174,1481 1456,739 174,0 Z M 1358,739 L 309,1346 659,739 1358,739 Z"
         id="path3367" /></g><g
       id="bullet-char-template(10132)"
       transform="scale(0.00048828125,-0.00048828125)"><path
         d="M 2015,739 L 1276,0 717,0 1260,543 174,543 174,936 1260,936 717,1481 1274,1481 2015,739 Z"
         id="path3370" /></g><g
       id="bullet-char-template(10007)"
       transform="scale(0.00048828125,-0.00048828125)"><path
         d="M 0,-2 C -7,14 -16,27 -25,37 L 356,567 C 262,823 215,952 215,954 215,979 228,992 255,992 264,992 276,990 289,987 310,991 331,999 354,1012 L 381,999 492,748 772,1049 836,1024 860,1049 C 881,1039 901,1025 922,1006 886,937 835,863 770,784 769,783 710,716 594,584 L 774,223 C 774,196 753,168 711,139 L 727,119 C 717,90 699,76 672,76 641,76 570,178 457,381 L 164,-76 C 142,-110 111,-127 72,-127 30,-127 9,-110 8,-76 1,-67 -2,-52 -2,-32 -2,-23 -1,-13 0,-2 Z"
         id="path3373" /></g><g
       id="bullet-char-template(10004)"
       transform="scale(0.00048828125,-0.00048828125)"><path
         d="M 285,-33 C 182,-33 111,30 74,156 52,228 41,333 41,471 41,549 55,616 82,672 116,743 169,778 240,778 293,778 328,747 346,684 L 369,508 C 377,444 397,411 428,410 L 1163,1116 C 1174,1127 1196,1133 1229,1133 1271,1133 1292,1118 1292,1087 L 1292,965 C 1292,929 1282,901 1262,881 L 442,47 C 390,-6 338,-33 285,-33 Z"
         id="path3376" /></g><g
       id="bullet-char-template(9679)"
       transform="scale(0.00048828125,-0.00048828125)"><path
         d="M 813,0 C 632,0 489,54 383,161 276,268 223,411 223,592 223,773 276,916 383,1023 489,1130 632,1184 813,1184 992,1184 1136,1130 1245,1023 1353,916 1407,772 1407,592 1407,412 1353,268 1245,161 1136,54 992,0 813,0 Z"
         id="path3379" /></g><g
       id="bullet-char-template(8226)"
       transform="scale(0.00048828125,-0.00048828125)"><path
         d="M 346,457 C 273,457 209,483 155,535 101,586 74,649 74,723 74,796 101,859 155,911 209,963 273,989 346,989 419,989 480,963 531,910 582,859 608,796 608,723 608,648 583,586 532,535 482,483 420,457 346,457 Z"
         id="path3382" /></g><g
       id="bullet-char-template(8211)"
       transform="scale(0.00048828125,-0.00048828125)"><path
         d="M -4,459 L 1135,459 1135,606 -4,606 -4,459 Z"
         id="path3385" /></g></defs><defs
     class="TextEmbeddedBitmaps"
     id="defs3387" /><g
     id="g3389"><g
       id="id2"
       class="Master_Slide"><g
         id="bg-id2"
         class="Background" /><g
         id="bo-id2"
         class="BackgroundObjects" /></g></g><g
     id="g3399"
     class="Page"><g
       class="com.sun.star.drawing.CustomShape"
       id="g3403"
       style="stroke:url(#linearGradient3842);fill-opacity:1;fill:url(#linearGradient3848)"><g
         id="id3"
         style="stroke:url(#linearGradient3842);fill-opacity:1;fill:url(#linearGradient3848)"><path
           d="M 9500,19000 0,19000 0,0 l 19000,0 0,19000 -9500,0 z"
           id="path3406"
           inkscape:connector-curvature="0"
           style="fill:url(#linearGradient3848);stroke:url(#linearGradient3842);fill-opacity:1" /><path
           d="M 9500,19000 0,19000 0,0 l 19000,0 0,19000 -9500,0 z"
           id="path3408"
           inkscape:connector-curvature="0"
           style="fill:url(#linearGradient3848);stroke:url(#linearGradient3842);fill-opacity:1" /></g></g><g
       class="com.sun.star.drawing.PolyPolygonShape"
       id="g3410"
       transform="translate(0,2427.1101)"
       style="fill:#ffffff;stroke:url(#linearGradient3824)"><g
         id="id4"
         style="fill:#ffffff;stroke:url(#linearGradient3824)"><path
           d="m 1500,4800 6300,0 0,2000 -2000,0 0,8000 -2300,0 0,-8000 -2000,0 0,-800 0,-1200 z"
           id="path3413"
           inkscape:connector-curvature="0"
           style="fill:#ffffff;stroke:url(#linearGradient3824)" /><path
           d="m 1500,4800 6300,0 0,2000 -2000,0 0,8000 -2300,0 0,-8000 -2000,0 0,-800 0,-1200 z"
           id="path3415"
           inkscape:connector-curvature="0"
           style="fill:#ffffff;stroke:url(#linearGradient3824)" /><text
           class="TextShape"
           id="text3417"
           style="fill:#ffffff;stroke:url(#linearGradient3824)"><tspan
             class="TextParagraph"
             font-size="635px"
             font-weight="400"
             id="tspan3419"
             style="font-size:635px;font-weight:400;fill:#ffffff;font-family:'Liberation Sans, sans-serif';stroke:url(#linearGradient3824)"><tspan
               class="TextPosition"
               x="3228"
               y="10021"
               id="tspan3421"
               style="fill:#ffffff;stroke:url(#linearGradient3824)"><tspan
                 id="tspan3423"
                 style="fill:#ffffff;stroke:url(#linearGradient3824)" /></tspan></tspan></text>
</g></g><g
       class="com.sun.star.drawing.PolyPolygonShape"
       id="g3425"
       transform="translate(0,2427.1101)"
       style="fill:#009000;fill-opacity:1;stroke:url(#linearGradient3818)"><g
         id="id5"
         style="fill:#009000;fill-opacity:1;stroke:url(#linearGradient3818)"><path
           d="m 17400,4800 -2600,0 -1800,3100 -1900,-3100 -2600,0 3000,5000 -3100,5000 2500,0 2100,-3300 2000,3300 2600,0 -3200,-5000 3000,-5000 z"
           id="path3428"
           inkscape:connector-curvature="0"
           style="fill:#009000;stroke:url(#linearGradient3818);fill-opacity:1" /><path
           d="m 17400,4800 -2600,0 -1800,3100 -1900,-3100 -2600,0 3000,5000 -3100,5000 2500,0 2100,-3300 2000,3300 2600,0 -3200,-5000 3000,-5000 z"
           id="path3430"
           inkscape:connector-curvature="0"
           style="fill:#009000;stroke:url(#linearGradient3818);fill-opacity:1" /></g></g><g
       id="g3445"
       class="com.sun.star.drawing.TextShape"
       transform="translate(-169.33334,2144.8881)"
       style="stroke:url(#linearGradient3836)"><g
         id="id7"
         style="stroke:url(#linearGradient3836)"><text
           style="line-height:125%;stroke:url(#linearGradient3836)"
           id="text3448"
           class="TextShape"
           sodipodi:linespacing="125%"><tspan
             style="font-size:5080px;font-style:normal;font-variant:normal;font-weight:bold;font-stretch:normal;text-align:start;line-height:125%;writing-mode:lr-tb;text-anchor:start;font-family:Sans;-inkscape-font-specification:Sans Bold;stroke:url(#linearGradient3836)"
             id="tspan3450"
             font-weight="700"
             font-size="3104px"
             class="TextParagraph"><tspan
               id="tspan3452"
               y="3521"
               x="1391"
               class="TextPosition"
               style="font-size:5080px;font-style:normal;font-variant:normal;font-weight:bold;font-stretch:normal;text-align:start;line-height:125%;writing-mode:lr-tb;text-anchor:start;fill:#ffffff;stroke:url(#linearGradient3836);font-family:Sans;-inkscape-font-specification:Sans Bold">O</tspan></tspan></text>
</g></g><g
       id="g3456"
       class="com.sun.star.drawing.TextShape"
       transform="translate(-508.00004,2144.8881)"
       style="stroke:url(#linearGradient3834)"><g
         id="id8"
         style="stroke:url(#linearGradient3834)"><text
           style="line-height:125%;stroke:url(#linearGradient3834)"
           id="text3459"
           class="TextShape"
           sodipodi:linespacing="125%"><tspan
             style="font-size:5080px;font-style:normal;font-variant:normal;font-weight:bold;font-stretch:normal;text-align:start;line-height:125%;writing-mode:lr-tb;text-anchor:start;font-family:Sans;-inkscape-font-specification:Sans Bold;stroke:url(#linearGradient3834)"
             id="tspan3461"
             font-weight="700"
             font-size="3104px"
             class="TextParagraph"><tspan
               id="tspan3463"
               y="3521"
               x="6282"
               class="TextPosition"
               style="font-size:5080px;font-style:normal;font-variant:normal;font-weight:bold;font-stretch:normal;text-align:start;line-height:125%;writing-mode:lr-tb;text-anchor:start;fill:#ffffff;stroke:url(#linearGradient3834);font-family:Sans;-inkscape-font-specification:Sans Bold">P</tspan></tspan></text>
</g></g><g
       id="g3467"
       class="com.sun.star.drawing.TextShape"
       transform="translate(-846.66674,2144.8881)"
       style="stroke:url(#linearGradient3832)"><g
         id="id9"
         style="stroke:url(#linearGradient3832)"><text
           style="line-height:125%;stroke:url(#linearGradient3832)"
           id="text3470"
           class="TextShape"
           sodipodi:linespacing="125%"><tspan
             style="font-size:5080px;font-style:normal;font-variant:normal;font-weight:bold;font-stretch:normal;text-align:start;line-height:125%;writing-mode:lr-tb;text-anchor:start;font-family:Sans;-inkscape-font-specification:Sans Bold;stroke:url(#linearGradient3832)"
             id="tspan3472"
             font-weight="700"
             font-size="3104px"
             class="TextParagraph"><tspan
               id="tspan3474"
               y="3586"
               x="10696"
               class="TextPosition"
               style="font-size:5080px;font-style:normal;font-variant:normal;font-weight:bold;font-stretch:normal;text-align:start;line-height:125%;writing-mode:lr-tb;text-anchor:start;fill:#ffffff;stroke:url(#linearGradient3832);font-family:Sans;-inkscape-font-specification:Sans Bold">E</tspan></tspan></text>
</g></g><g
       id="g3478"
       class="com.sun.star.drawing.TextShape"
       transform="translate(-1241.7777,2144.8881)"
       style="stroke:url(#linearGradient3830)"><g
         id="id10"
         style="stroke:url(#linearGradient3830)"><text
           style="line-height:125%;stroke:url(#linearGradient3830)"
           id="text3481"
           class="TextShape"
           sodipodi:linespacing="125%"><tspan
             style="font-size:5080px;font-style:normal;font-variant:normal;font-weight:bold;font-stretch:normal;text-align:start;line-height:125%;writing-mode:lr-tb;text-anchor:start;font-family:Sans;-inkscape-font-specification:Sans Bold;stroke:url(#linearGradient3830)"
             id="tspan3483"
             font-weight="700"
             font-size="3104px"
             class="TextParagraph"><tspan
               id="tspan3485"
               y="3586"
               x="14950"
               class="TextPosition"
               style="font-size:5080px;font-style:normal;font-variant:normal;font-weight:bold;font-stretch:normal;text-align:start;line-height:125%;writing-mode:lr-tb;text-anchor:start;fill:#ffffff;stroke:url(#linearGradient3830);font-family:Sans;-inkscape-font-specification:Sans Bold">N</tspan></tspan></text>
</g></g></g></svg>