#define U_width 5
#define U_height 8
static unsigned char U_bits[] = {
   0x03, 0x04, 0x11, 0x11, 0x11, 0x19, 0x16, 0x00 };
