#define font_de_width 30
#define font_de_height 8
static unsigned char font_de_bits[] = {
   0x00, 0x00, 0xa5, 0x14, 0x4a, 0x29, 0xe7, 0x00, 0xce, 0x81, 0x18, 0x23,
   0x30, 0xc6, 0x18, 0x23, 0x3e, 0xc6, 0x1f, 0x23, 0x31, 0xc6, 0x18, 0x23,
   0xde, 0xb9, 0xe8, 0x1c, 0x00, 0x00, 0x00, 0x00 };
