#define asterisk_width 27
#define asterisk_height 32
static unsigned char asterisk_bits[] = {
   0x00, 0x00, 0x00, 0x00, 0x00, 0x00, 0x00, 0x00, 0x00, 0x20, 0x00, 0x00,
   0x00, 0x70, 0x00, 0x00, 0x00, 0x70, 0x00, 0x00, 0x00, 0xd8, 0x00, 0x00,
   0x00, 0xd8, 0x00, 0x00, 0x00, 0x8c, 0x01, 0x00, 0x00, 0x8c, 0x01, 0x00,
   0x00, 0x06, 0x03, 0x00, 0x00, 0x26, 0x03, 0x00, 0x00, 0x73, 0x06, 0x00,
   0x00, 0x73, 0x06, 0x00, 0x80, 0x71, 0x0c, 0x00, 0x80, 0x71, 0x0c, 0x00,
   0xc0, 0x70, 0x18, 0x00, 0xc0, 0x70, 0x18, 0x00, 0x60, 0x70, 0x30, 0x00,
   0x60, 0x70, 0x30, 0x00, 0x30, 0x70, 0x60, 0x00, 0x30, 0x70, 0x60, 0x00,
   0x18, 0x70, 0xc0, 0x00, 0x18, 0x20, 0xc0, 0x00, 0x0c, 0x00, 0x80, 0x01,
   0x0c, 0x70, 0x80, 0x01, 0x06, 0x70, 0x00, 0x03, 0x06, 0x70, 0x00, 0x03,
   0x03, 0x00, 0x00, 0x06, 0xff, 0xff, 0xff, 0x07, 0xfe, 0xff, 0xff, 0x03,
   0x00, 0x00, 0x00, 0x00, 0x00, 0x00, 0x00, 0x00 };
