#define font_extra_6x1_width 30
#define font_extra_6x1_height 8
static unsigned char font_extra_6x1_bits[] = {
   0x84, 0x00, 0x00, 0x00, 0x8e, 0xf8, 0x00, 0x1f, 0x91, 0x40, 0x99, 0x02,
   0x84, 0x50, 0x5a, 0x0a, 0x24, 0x4a, 0x18, 0x12, 0xc4, 0x05, 0xff, 0x20,
   0x84, 0x00, 0x00, 0x00, 0x00, 0x00, 0x00, 0x00 };
