#define font_6x1_width 80
#define font_6x1_height 48
static unsigned char font_6x1_bits[] = {
   0x00, 0x29, 0xe0, 0x86, 0x31, 0x48, 0x00, 0x00, 0x00, 0x00, 0x00, 0x29,
   0xe8, 0x66, 0x22, 0x84, 0x10, 0x02, 0x00, 0x80, 0x00, 0x29, 0xec, 0x50,
   0x11, 0x02, 0x55, 0x02, 0x00, 0x40, 0x00, 0x81, 0xf6, 0x89, 0x00, 0x02,
   0xb9, 0x0f, 0x3c, 0x20, 0x00, 0x80, 0xe3, 0x44, 0x05, 0x02, 0x55, 0x62,
   0x00, 0x10, 0x00, 0x01, 0xe1, 0x72, 0x02, 0x84, 0x10, 0x42, 0x80, 0x09,
   0x00, 0x01, 0xe0, 0xb0, 0x05, 0x48, 0x00, 0x20, 0x80, 0x01, 0x00, 0x00,
   0x00, 0x00, 0x00, 0x00, 0x00, 0x00, 0x00, 0x00, 0x0c, 0x31, 0x07, 0x3d,
   0xf3, 0x8c, 0x01, 0x00, 0x41, 0x70, 0x92, 0x49, 0x88, 0x85, 0x84, 0x52,
   0x32, 0x86, 0x80, 0x88, 0x12, 0x41, 0x48, 0x9d, 0x40, 0x52, 0x32, 0x46,
   0x3e, 0x81, 0x12, 0x21, 0x26, 0xa1, 0x23, 0x8c, 0x03, 0x20, 0x00, 0x42,
   0x12, 0x11, 0xe8, 0xa1, 0x24, 0x12, 0x32, 0x46, 0x3e, 0x21, 0x12, 0x09,
   0x08, 0xa5, 0x24, 0x12, 0x31, 0x84, 0x80, 0x00, 0x8c, 0x7b, 0x07, 0x19,
   0x23, 0x8c, 0x00, 0x02, 0x41, 0x20, 0x00, 0x00, 0x00, 0x00, 0x00, 0x00,
   0x00, 0x00, 0x00, 0x00, 0xc6, 0x3d, 0x77, 0xfe, 0x77, 0xd1, 0xf1, 0x18,
   0x62, 0x74, 0x29, 0xc6, 0x98, 0x42, 0x88, 0x91, 0xa0, 0x14, 0x76, 0x8c,
   0x29, 0xc6, 0x10, 0x43, 0x08, 0x91, 0xa0, 0x12, 0xea, 0x8c, 0xe6, 0xbf,
   0x10, 0xdf, 0xeb, 0x9f, 0xa0, 0x11, 0x6a, 0x8d, 0x20, 0xc6, 0x10, 0x43,
   0x88, 0x91, 0xa0, 0x12, 0x62, 0x8e, 0x20, 0xc6, 0x98, 0x42, 0x88, 0x91,
   0xa4, 0x14, 0x62, 0x8c, 0x20, 0x3e, 0x77, 0x7e, 0xf0, 0xd1, 0x99, 0xf8,
   0x63, 0x74, 0x00, 0x00, 0x00, 0x00, 0x00, 0x00, 0x00, 0x00, 0x00, 0x00,
   0xcf, 0x3d, 0xf7, 0x63, 0x8c, 0x31, 0x7e, 0x07, 0x1c, 0x01, 0x31, 0xc6,
   0x48, 0x62, 0x8c, 0x31, 0x42, 0x11, 0x90, 0x02, 0x31, 0xc6, 0x40, 0x62,
   0x8c, 0x2a, 0x22, 0x21, 0x50, 0x04, 0x2f, 0x3e, 0x47, 0x62, 0x8c, 0x44,
   0x11, 0x41, 0x10, 0x00, 0xa1, 0x16, 0x48, 0x62, 0xac, 0x8a, 0x08, 0x81,
   0x10, 0x00, 0x21, 0xa5, 0x48, 0xa2, 0xaa, 0x91, 0x04, 0x01, 0x11, 0x00,
   0xc1, 0x46, 0x47, 0x1c, 0x51, 0x91, 0x7c, 0x07, 0x1c, 0xf8, 0x00, 0x00,
   0x00, 0x00, 0x00, 0x00, 0x00, 0x00, 0x00, 0x00, 0x02, 0x04, 0x00, 0x01,
   0x03, 0x81, 0xa0, 0x60, 0x00, 0x00, 0x04, 0x04, 0x00, 0x81, 0xf4, 0x01,
   0x80, 0x40, 0x00, 0x00, 0xc8, 0x35, 0x67, 0x9d, 0x88, 0xcd, 0xb0, 0x44,
   0x56, 0x73, 0x00, 0xce, 0x90, 0xe3, 0x89, 0x93, 0xa0, 0x42, 0xea, 0x8c,
   0xc0, 0xc7, 0x10, 0xbf, 0xf0, 0x91, 0xa0, 0x41, 0x6a, 0x8c, 0x20, 0xc6,
   0x18, 0x83, 0x80, 0x91, 0xa4, 0x42, 0x62, 0x8c, 0xc0, 0x3f, 0xe7, 0x9d,
   0x70, 0xd1, 0x99, 0xe4, 0x62, 0x74, 0x00, 0x00, 0x00, 0x00, 0x00, 0x00,
   0x00, 0x00, 0x00, 0x00, 0x00, 0x00, 0x20, 0x00, 0x00, 0x00, 0x00, 0x44,
   0x04, 0x00, 0x00, 0x00, 0x20, 0x00, 0x00, 0x00, 0x00, 0x42, 0x08, 0x21,
   0xcf, 0x36, 0x77, 0x62, 0x8c, 0x31, 0x7e, 0x42, 0x08, 0x12, 0x31, 0xcf,
   0x20, 0x62, 0x8c, 0x2a, 0x22, 0x41, 0xd0, 0xde, 0xcf, 0x07, 0x27, 0x62,
   0x8c, 0xc4, 0x13, 0x42, 0x08, 0x12, 0x01, 0x06, 0x28, 0xb3, 0xaa, 0x0a,
   0x0a, 0x42, 0x08, 0x21, 0x01, 0x86, 0xc7, 0x2c, 0x51, 0xd1, 0x7d, 0x44,
   0x04, 0x00, 0x00, 0x00, 0x00, 0x00, 0x00, 0x00, 0x00, 0x00, 0x00, 0x00 };
