#define doublefont_width 128
#define doublefont_height 72
static unsigned char doublefont_bits[] = {
   0x00, 0x00, 0x00, 0x00, 0x00, 0x00, 0x00, 0x00, 0x60, 0x0c, 0x00, 0x00,
   0x00, 0x00, 0x00, 0x00, 0x00, 0x18, 0x6c, 0x00, 0x10, 0xc2, 0x1c, 0x18,
   0x30, 0x18, 0x00, 0x00, 0x00, 0x00, 0x00, 0xc0, 0x00, 0x18, 0x6c, 0x6c,
   0x7c, 0x67, 0x36, 0x18, 0x18, 0x30, 0x00, 0x00, 0x00, 0x00, 0x00, 0x60,
   0x00, 0x18, 0x6c, 0x6c, 0xd6, 0x67, 0x36, 0x18, 0x18, 0x30, 0x00, 0x18,
   0x00, 0x00, 0x00, 0x60, 0x00, 0x18, 0x00, 0xfe, 0x16, 0x32, 0x1e, 0x18,
   0x0c, 0x60, 0x6c, 0x18, 0x00, 0x00, 0x00, 0x30, 0x00, 0x18, 0x00, 0x6c,
   0x1e, 0x18, 0x0c, 0x00, 0x0c, 0x60, 0x38, 0x18, 0x00, 0x00, 0x00, 0x18,
   0x00, 0x18, 0x00, 0x6c, 0x7c, 0x18, 0x9e, 0x00, 0x0c, 0x60, 0xfe, 0xff,
   0x00, 0xff, 0x00, 0x18, 0x00, 0x18, 0x00, 0xfe, 0xf0, 0x4c, 0xf3, 0x00,
   0x0c, 0x60, 0x38, 0x18, 0x38, 0x00, 0x00, 0x0c, 0x00, 0x18, 0x00, 0x6c,
   0xd0, 0xe6, 0x63, 0x00, 0x18, 0x30, 0x6c, 0x18, 0x38, 0x00, 0x00, 0x06,
   0x00, 0x00, 0x00, 0x6c, 0xd6, 0xe6, 0x73, 0x00, 0x18, 0x30, 0x00, 0x18,
   0x30, 0x00, 0x18, 0x06, 0x00, 0x18, 0x00, 0x00, 0x7c, 0x43, 0xde, 0x00,
   0x30, 0x18, 0x00, 0x00, 0x30, 0x00, 0x3c, 0x03, 0x00, 0x00, 0x00, 0x00,
   0x10, 0x00, 0x00, 0x00, 0x60, 0x0c, 0x00, 0x00, 0x18, 0x00, 0x18, 0x00,
   0x00, 0x00, 0x00, 0x00, 0x00, 0x00, 0x00, 0x00, 0x00, 0x00, 0x00, 0x00,
   0x00, 0x00, 0x00, 0x00, 0x1e, 0x0c, 0x1e, 0x1e, 0x10, 0x3f, 0x1c, 0x3f,
   0x1e, 0x1e, 0x00, 0x00, 0x60, 0x00, 0x06, 0x7c, 0x33, 0x0e, 0x33, 0x33,
   0x18, 0x03, 0x36, 0x33, 0x33, 0x33, 0x18, 0x18, 0x30, 0x00, 0x0c, 0xc6,
   0x33, 0x0f, 0x33, 0x33, 0x18, 0x03, 0x33, 0x1b, 0x33, 0x33, 0x3c, 0x3c,
   0x18, 0x00, 0x18, 0xc6, 0x33, 0x0c, 0x30, 0x30, 0x1c, 0x1f, 0x03, 0x18,
   0x33, 0x33, 0x18, 0x18, 0x0c, 0x00, 0x30, 0xc0, 0x33, 0x0c, 0x18, 0x1c,
   0x1e, 0x33, 0x1f, 0x0c, 0x1e, 0x33, 0x00, 0x00, 0x06, 0xff, 0x60, 0x60,
   0x33, 0x0c, 0x18, 0x30, 0x1b, 0x30, 0x33, 0x0c, 0x1e, 0x3e, 0x00, 0x00,
   0x06, 0x00, 0x60, 0x30, 0x33, 0x0c, 0x0c, 0x30, 0x1b, 0x30, 0x33, 0x0c,
   0x33, 0x30, 0x18, 0x38, 0x0c, 0x00, 0x30, 0x18, 0x33, 0x0c, 0x06, 0x33,
   0x3f, 0x33, 0x33, 0x0c, 0x33, 0x33, 0x3c, 0x38, 0x18, 0xff, 0x18, 0x00,
   0x33, 0x0c, 0x03, 0x33, 0x18, 0x33, 0x33, 0x0c, 0x33, 0x1b, 0x18, 0x30,
   0x30, 0x00, 0x0c, 0x18, 0x1e, 0x3f, 0x3f, 0x1e, 0x18, 0x1e, 0x1e, 0x0c,
   0x1e, 0x0e, 0x00, 0x30, 0x60, 0x00, 0x06, 0x18, 0x00, 0x00, 0x00, 0x00,
   0x00, 0x00, 0x00, 0x00, 0x00, 0x00, 0x00, 0x18, 0x00, 0x00, 0x00, 0x00,
   0x00, 0x00, 0x00, 0x00, 0x00, 0x00, 0x00, 0x00, 0x00, 0x00, 0x00, 0x00,
   0x00, 0x00, 0x00, 0x00, 0x78, 0x18, 0x3f, 0x7c, 0x3f, 0xfe, 0xff, 0x7c,
   0xc3, 0x7e, 0x78, 0xc3, 0x06, 0xc3, 0xc3, 0x3c, 0xcc, 0x3c, 0x63, 0xc6,
   0x63, 0x06, 0x03, 0xc6, 0xc3, 0x18, 0x60, 0x63, 0x06, 0xe7, 0xc7, 0x66,
   0xcc, 0x66, 0xc3, 0x83, 0xc3, 0x06, 0x03, 0x03, 0xc3, 0x18, 0x60, 0x33,
   0x06, 0xff, 0xcf, 0xc3, 0x78, 0xc3, 0x63, 0x03, 0xc3, 0x06, 0x03, 0x03,
   0xc3, 0x18, 0x60, 0x1b, 0x06, 0xdb, 0xcf, 0xc3, 0x00, 0xc3, 0x3f, 0x03,
   0xc3, 0x7e, 0x3f, 0x03, 0xff, 0x18, 0x60, 0x0f, 0x06, 0xdb, 0xdb, 0xc3,
   0x00, 0xc3, 0x63, 0x03, 0xc3, 0x06, 0x03, 0xe3, 0xc3, 0x18, 0x60, 0x0f,
   0x06, 0xdb, 0xdb, 0xc3, 0x00, 0xff, 0xc3, 0x03, 0xc3, 0x06, 0x03, 0xc3,
   0xc3, 0x18, 0x60, 0x1b, 0x06, 0xc3, 0xf3, 0xc3, 0x00, 0xc3, 0xc3, 0x83,
   0xc3, 0x06, 0x03, 0xc3, 0xc3, 0x18, 0x62, 0x33, 0x06, 0xc3, 0xe3, 0xc3,
   0x00, 0xc3, 0x63, 0xc6, 0x63, 0x06, 0x03, 0xc6, 0xc3, 0x18, 0x36, 0x63,
   0x06, 0xc3, 0xe3, 0x66, 0x00, 0xc3, 0x3f, 0x7c, 0x3f, 0xfe, 0x03, 0x7c,
   0xc3, 0x7e, 0x1c, 0xc3, 0xfe, 0xc3, 0xc3, 0x3c, 0x00, 0x00, 0x00, 0x00,
   0x00, 0x00, 0x00, 0x00, 0x00, 0x00, 0x00, 0x00, 0x00, 0x00, 0x00, 0x00,
   0x00, 0x00, 0x00, 0x00, 0x00, 0x00, 0x00, 0x00, 0x00, 0x00, 0x00, 0x7c,
   0x00, 0x7c, 0x00, 0x00, 0x7f, 0x3c, 0x7f, 0x7e, 0xff, 0xc3, 0xc3, 0xc3,
   0xc3, 0xc3, 0xfe, 0x0c, 0x03, 0x60, 0x18, 0x00, 0xc3, 0x66, 0xc3, 0xc3,
   0x18, 0xc3, 0xc3, 0xc3, 0xc3, 0xc3, 0xc0, 0x0c, 0x06, 0x60, 0x3c, 0x00,
   0xc3, 0xc3, 0xc3, 0x03, 0x18, 0xc3, 0xc3, 0xc3, 0x66, 0x66, 0xc0, 0x0c,
   0x06, 0x60, 0x66, 0x00, 0xc3, 0xc3, 0xc3, 0x03, 0x18, 0xc3, 0x66, 0xc3,
   0x3c, 0x3c, 0x60, 0x0c, 0x0c, 0x60, 0x42, 0x00, 0x7f, 0xc3, 0x7f, 0x7e,
   0x18, 0xc3, 0x66, 0xdb, 0x18, 0x18, 0x30, 0x0c, 0x18, 0x60, 0x00, 0x00,
   0x03, 0xc3, 0x1f, 0xc0, 0x18, 0xc3, 0x66, 0xdb, 0x18, 0x18, 0x18, 0x0c,
   0x18, 0x60, 0x00, 0x00, 0x03, 0xdb, 0x33, 0xc0, 0x18, 0xc3, 0x3c, 0xdb,
   0x3c, 0x18, 0x0c, 0x0c, 0x30, 0x60, 0x00, 0x00, 0x03, 0xf3, 0x63, 0xc0,
   0x18, 0xc3, 0x3c, 0xff, 0x66, 0x18, 0x06, 0x0c, 0x60, 0x60, 0x00, 0x00,
   0x03, 0x66, 0xc3, 0xc3, 0x18, 0x66, 0x18, 0xe7, 0xc3, 0x18, 0x06, 0x0c,
   0x60, 0x60, 0x00, 0x00, 0x03, 0xbc, 0xc3, 0x7e, 0x18, 0x3c, 0x18, 0xc3,
   0xc3, 0x18, 0xfe, 0x0c, 0xc0, 0x60, 0x00, 0x00, 0x00, 0x00, 0x00, 0x00,
   0x00, 0x00, 0x00, 0x00, 0x00, 0x00, 0x00, 0x7c, 0x00, 0x7c, 0x00, 0xff,
   0x0c, 0x00, 0x00, 0x00, 0x00, 0x00, 0x00, 0x00, 0x00, 0x00, 0x00, 0x00,
   0x00, 0x00, 0x00, 0x00, 0x18, 0x00, 0x03, 0x00, 0xc0, 0x00, 0x78, 0x00,
   0x03, 0x18, 0xc0, 0x06, 0x1c, 0x00, 0x00, 0x00, 0x30, 0x00, 0x03, 0x00,
   0xc0, 0x00, 0xcc, 0x00, 0x03, 0x18, 0xc0, 0x06, 0x18, 0x00, 0x00, 0x00,
   0x00, 0x00, 0x03, 0x00, 0xc0, 0x00, 0xcc, 0x00, 0x03, 0x00, 0x00, 0x06,
   0x18, 0x00, 0x00, 0x00, 0x00, 0x7c, 0x3b, 0x7c, 0xdc, 0x3c, 0x0c, 0xbe,
   0x3b, 0x1c, 0xf0, 0x66, 0x18, 0x6d, 0x3b, 0x3c, 0x00, 0xc6, 0x67, 0xc6,
   0xe6, 0x66, 0x0c, 0xe3, 0x67, 0x18, 0xc0, 0x36, 0x18, 0xdb, 0x67, 0x66,
   0x00, 0xc0, 0xc3, 0x03, 0xc3, 0xc3, 0x3f, 0x63, 0xc3, 0x18, 0xc0, 0x1e,
   0x18, 0xdb, 0xc3, 0xc3, 0x00, 0xfe, 0xc3, 0x03, 0xc3, 0xff, 0x0c, 0x3e,
   0xc3, 0x18, 0xc0, 0x1e, 0x18, 0xdb, 0xc3, 0xc3, 0x00, 0xc3, 0xc3, 0x03,
   0xc3, 0x03, 0x0c, 0x03, 0xc3, 0x18, 0xc6, 0x36, 0x18, 0xdb, 0xc3, 0xc3,
   0x00, 0xe3, 0x67, 0xc6, 0xe6, 0xc6, 0x0c, 0x7e, 0xc3, 0x18, 0xc6, 0x66,
   0x18, 0xdb, 0xc3, 0x66, 0x00, 0xde, 0x3b, 0x7c, 0xdc, 0x7c, 0x0c, 0xc3,
   0xc3, 0x7e, 0xc6, 0xc6, 0x7e, 0xdb, 0xc3, 0x3c, 0x00, 0x00, 0x00, 0x00,
   0x00, 0x00, 0x00, 0x7e, 0x00, 0x00, 0x7c, 0x00, 0x00, 0x00, 0x00, 0x00,
   0x00, 0x00, 0x00, 0x00, 0x00, 0x00, 0x00, 0x00, 0x00, 0x00, 0x00, 0x70,
   0x00, 0x1c, 0x00, 0x00, 0x00, 0x00, 0x00, 0x00, 0x00, 0x00, 0x00, 0x00,
   0x00, 0x00, 0x00, 0x18, 0x18, 0x30, 0x00, 0x00, 0x00, 0x00, 0x00, 0x00,
   0x0c, 0x00, 0x00, 0x00, 0x00, 0x00, 0x00, 0x18, 0x18, 0x30, 0x08, 0x10,
   0x00, 0x00, 0x00, 0x00, 0x0c, 0x00, 0x00, 0x00, 0x00, 0x00, 0x00, 0x18,
   0x18, 0x30, 0x10, 0x08, 0x3b, 0xdc, 0x7b, 0x7e, 0x3f, 0xc3, 0xc3, 0xc3,
   0xc3, 0xc3, 0x7e, 0x18, 0x18, 0x30, 0x20, 0x04, 0x67, 0xe6, 0xce, 0xc3,
   0x0c, 0xc3, 0xc3, 0xc3, 0x66, 0xc3, 0x60, 0x0c, 0x18, 0x60, 0x7f, 0xfe,
   0xc3, 0xc3, 0x06, 0x03, 0x0c, 0xc3, 0x66, 0xdb, 0x3c, 0xc3, 0x30, 0x0c,
   0x18, 0x60, 0x7f, 0xfe, 0xe7, 0xe7, 0x06, 0x7e, 0x0c, 0xc3, 0x66, 0xdb,
   0x18, 0xe7, 0x18, 0x18, 0x18, 0x30, 0x20, 0x04, 0x3b, 0xdc, 0x06, 0xc0,
   0x0c, 0xc3, 0x3c, 0xdb, 0x3c, 0xdc, 0x0c, 0x18, 0x18, 0x30, 0x10, 0x08,
   0x03, 0xc0, 0x06, 0xc3, 0xcc, 0xe6, 0x3c, 0xff, 0x66, 0xc0, 0x06, 0x18,
   0x18, 0x30, 0x08, 0x10, 0x03, 0xc0, 0x06, 0x7e, 0x78, 0xdc, 0x18, 0x66,
   0xc3, 0x63, 0x7e, 0x18, 0x18, 0x30, 0x00, 0x00, 0x03, 0xc0, 0x00, 0x00,
   0x00, 0x00, 0x00, 0x00, 0x00, 0x3e, 0x00, 0x70, 0x00, 0x1c, 0x00, 0x00 };
