#define font_small_width 80
#define font_small_height 42
static unsigned char font_small_bits[] = {
   0x80, 0x28, 0x00, 0x02, 0x20, 0x44, 0x00, 0x00, 0x00, 0x00, 0x80, 0x28,
   0xe5, 0x92, 0x20, 0x82, 0x28, 0x02, 0x00, 0x40, 0x80, 0xa8, 0x5f, 0x48,
   0x21, 0x82, 0x10, 0x02, 0x00, 0x20, 0x80, 0x00, 0xe5, 0x84, 0x00, 0x82,
   0xb8, 0x0f, 0x1e, 0x10, 0x00, 0x80, 0x4f, 0x53, 0x01, 0x82, 0x10, 0xc2,
   0x80, 0x09, 0x80, 0x00, 0xe5, 0x90, 0x02, 0x44, 0x28, 0x42, 0x80, 0x01,
   0x00, 0x00, 0x00, 0x00, 0x00, 0x00, 0x00, 0x20, 0x00, 0x00, 0x84, 0x98,
   0x47, 0x9e, 0x79, 0xc6, 0x00, 0x00, 0x00, 0x20, 0xca, 0x24, 0x64, 0x42,
   0x40, 0x29, 0x19, 0x83, 0x80, 0x50, 0x8a, 0x20, 0x53, 0xce, 0x21, 0x26,
   0x19, 0x43, 0x1e, 0x41, 0x8a, 0x10, 0xf4, 0x50, 0x22, 0xc9, 0x01, 0x20,
   0x00, 0x22, 0x8a, 0x88, 0x44, 0x52, 0x12, 0x09, 0x19, 0x43, 0x1e, 0x01,
   0xc4, 0x3d, 0x43, 0x8c, 0x11, 0xc6, 0x18, 0x81, 0x80, 0x20, 0x00, 0x00,
   0x00, 0x00, 0x00, 0x00, 0x80, 0x00, 0x00, 0x00, 0xc4, 0x1c, 0x73, 0xde,
   0x33, 0xc9, 0xa1, 0x14, 0x62, 0x32, 0x2a, 0xa5, 0x94, 0x42, 0x48, 0x89,
   0xa0, 0x12, 0xf6, 0x4a, 0x24, 0x9d, 0x90, 0xce, 0x09, 0x8f, 0xa0, 0x11,
   0xea, 0x4a, 0xe0, 0xa5, 0x90, 0x42, 0x68, 0x89, 0xa0, 0x11, 0x62, 0x4b,
   0x20, 0xa5, 0x94, 0x42, 0x48, 0x89, 0xa4, 0x12, 0x62, 0x4b, 0x20, 0x1d,
   0x73, 0x5e, 0x70, 0xc9, 0x99, 0xf4, 0x62, 0x32, 0x00, 0x00, 0x00, 0x00,
   0x00, 0x00, 0x00, 0x00, 0x00, 0x00, 0xc7, 0x1c, 0xe3, 0x52, 0x8a, 0x49,
   0x3d, 0x07, 0x1c, 0x01, 0x29, 0xa5, 0x44, 0x52, 0x8a, 0x49, 0x21, 0x11,
   0x90, 0x02, 0x29, 0x25, 0x41, 0x52, 0xaa, 0x46, 0x11, 0x21, 0x10, 0x00,
   0x27, 0x1d, 0x42, 0x52, 0xfa, 0x86, 0x08, 0x41, 0x10, 0x00, 0x61, 0x95,
   0x44, 0x92, 0xd9, 0x89, 0x04, 0x81, 0x10, 0x00, 0xc1, 0x24, 0x43, 0x8c,
   0x89, 0x89, 0x3c, 0x07, 0x1c, 0x78, 0x00, 0x01, 0x00, 0x00, 0x00, 0x00,
   0x00, 0x00, 0x00, 0x00, 0x02, 0x04, 0x80, 0x00, 0x01, 0x81, 0xa0, 0x60,
   0x00, 0x00, 0x04, 0x04, 0x80, 0x80, 0x02, 0x01, 0x80, 0x40, 0x00, 0x00,
   0xc0, 0x1d, 0xe3, 0x8c, 0x70, 0xc7, 0xa0, 0x42, 0xd2, 0x31, 0x20, 0xa5,
   0x90, 0xda, 0x49, 0x89, 0xa0, 0x41, 0x7e, 0x4a, 0xa0, 0xa5, 0x90, 0x86,
   0x30, 0x89, 0xa0, 0x42, 0x6a, 0x4a, 0x40, 0x1d, 0xe3, 0x8c, 0x08, 0xc9,
   0xa9, 0xe4, 0x6a, 0x32, 0x00, 0x00, 0x00, 0x00, 0x70, 0x00, 0x10, 0x00,
   0x00, 0x00, 0x00, 0x00, 0x20, 0x00, 0x00, 0x00, 0x00, 0x44, 0x04, 0x00,
   0x00, 0x00, 0x20, 0x00, 0x00, 0x00, 0x00, 0x42, 0x88, 0x40, 0xc7, 0x1d,
   0x77, 0x92, 0x8a, 0x29, 0x3d, 0x43, 0x18, 0x21, 0x29, 0xa5, 0x21, 0x92,
   0xaa, 0x26, 0x11, 0x42, 0xc8, 0xf3, 0x29, 0x05, 0x26, 0x92, 0xfa, 0x46,
   0x09, 0x42, 0x08, 0x21, 0xc7, 0x85, 0xc3, 0x1c, 0xd9, 0x89, 0x3c, 0x44,
   0x84, 0x40, 0x01, 0x01, 0x00, 0x00, 0x00, 0x40, 0x00, 0x00, 0x00, 0x00 };
