#define font_small_extra_width 30
#define font_small_extra_height 7
static unsigned char font_small_extra_bits[] = {
   0x84, 0x00, 0x00, 0x00, 0x8e, 0xf8, 0x00, 0x1f, 0x91, 0x40, 0x99, 0x02,
   0x24, 0x52, 0x5a, 0x0a, 0xc4, 0x49, 0x18, 0x12, 0x84, 0x04, 0xff, 0x20,
   0x00, 0x00, 0x00, 0x00 };
