#define font_tiny_width 39
#define font_tiny_height 5
static unsigned char font_tiny_bits[] = {
   0x00, 0xa4, 0xbf, 0xff, 0x7f, 0x00, 0x3a, 0xb2, 0x09, 0x5b, 0x07, 0x2a,
   0xf9, 0xbf, 0x7e, 0x00, 0xaa, 0x90, 0xac, 0x4a, 0x00, 0xf4, 0x9f, 0xbf,
   0x7e };
